<svg width="26" height="32" viewBox="0 0 26 32" fill="none" xmlns="http://www.w3.org/2000/svg">
<mask id="path-1-outside-1_1496_1891" maskUnits="userSpaceOnUse" x="0.107422" y="0.765625" width="26" height="31" fill="black">
<rect fill="white" x="0.107422" y="0.765625" width="26" height="31"/>
<path fill-rule="evenodd" clip-rule="evenodd" d="M25.1074 6.22991C25.1074 3.76435 23.1087 1.76563 20.6431 1.76563L5.46457 1.76563C2.99901 1.76563 1.00028 3.76435 1.00028 6.22991V22.3013C1.00028 24.0259 1.97816 25.5221 3.40969 26.2656C4.02476 26.5851 4.72359 26.7656 5.46457 26.7656H7.40664C7.73294 26.8978 8.06021 27.0649 8.36616 27.2762C9.52414 28.0758 10.0713 28.559 10.7326 29.1431C10.907 29.2972 11.0894 29.4583 11.293 29.634C12.2686 30.4762 12.7564 30.4762 13.732 29.634L13.732 29.634C14.7076 28.7919 15.6832 27.9498 16.6588 27.2761C16.9482 27.0763 17.1946 26.9062 17.4618 26.7656H20.6431C21.3841 26.7656 22.0829 26.5851 22.698 26.2656C24.1295 25.5221 25.1074 24.0259 25.1074 22.3013V6.22991Z"/>
</mask>
<path fill-rule="evenodd" clip-rule="evenodd" d="M25.1074 6.22991C25.1074 3.76435 23.1087 1.76563 20.6431 1.76563L5.46457 1.76563C2.99901 1.76563 1.00028 3.76435 1.00028 6.22991V22.3013C1.00028 24.0259 1.97816 25.5221 3.40969 26.2656C4.02476 26.5851 4.72359 26.7656 5.46457 26.7656H7.40664C7.73294 26.8978 8.06021 27.0649 8.36616 27.2762C9.52414 28.0758 10.0713 28.559 10.7326 29.1431C10.907 29.2972 11.0894 29.4583 11.293 29.634C12.2686 30.4762 12.7564 30.4762 13.732 29.634L13.732 29.634C14.7076 28.7919 15.6832 27.9498 16.6588 27.2761C16.9482 27.0763 17.1946 26.9062 17.4618 26.7656H20.6431C21.3841 26.7656 22.0829 26.5851 22.698 26.2656C24.1295 25.5221 25.1074 24.0259 25.1074 22.3013V6.22991Z" fill="black" fill-opacity="0.6"/>
<path d="M3.40969 26.2656L3.82124 25.4733H3.82124L3.40969 26.2656ZM7.40664 26.7656L7.74183 25.9381L7.58059 25.8728H7.40664V26.7656ZM8.36616 27.2762L7.85882 28.0109L8.36616 27.2762ZM10.7326 29.1431L11.3236 28.4739L11.3236 28.4739L10.7326 29.1431ZM11.293 29.634L10.7096 30.3099L11.293 29.634ZM13.732 29.634L13.1743 28.9368L13.1612 28.9473L13.1486 28.9582L13.732 29.634ZM13.732 29.634L14.2898 30.3312L14.3028 30.3208L14.3154 30.3099L13.732 29.634ZM16.6588 27.2761L17.1662 28.0109H17.1662L16.6588 27.2761ZM17.4618 26.7656V25.8728H17.2413L17.0461 25.9754L17.4618 26.7656ZM22.698 26.2656L22.2865 25.4733H22.2865L22.698 26.2656ZM20.6431 2.65848C22.6156 2.65848 24.2146 4.25747 24.2146 6.22991H26.0003C26.0003 3.27124 23.6018 0.872768 20.6431 0.872768V2.65848ZM5.46457 2.65848L20.6431 2.65848V0.872768L5.46457 0.872768V2.65848ZM1.89314 6.22991C1.89314 4.25746 3.49212 2.65848 5.46457 2.65848V0.872768C2.5059 0.872768 0.107424 3.27124 0.107424 6.22991H1.89314ZM1.89314 22.3013V6.22991H0.107424V22.3013H1.89314ZM3.82124 25.4733C2.67378 24.8773 1.89314 23.6797 1.89314 22.3013H0.107424C0.107424 24.3721 1.28255 26.1669 2.99814 27.058L3.82124 25.4733ZM5.46457 25.8728C4.8702 25.8728 4.31219 25.7283 3.82124 25.4733L2.99814 27.058C3.73734 27.4419 4.57697 27.6585 5.46457 27.6585V25.8728ZM7.40664 25.8728H5.46457V27.6585H7.40664V25.8728ZM7.07145 27.5932C7.34861 27.7054 7.61599 27.8432 7.85882 28.0109L8.8735 26.5414C8.50443 26.2866 8.11727 26.0901 7.74183 25.9381L7.07145 27.5932ZM7.85882 28.0109C8.97484 28.7815 9.49182 29.2385 10.1415 29.8123L11.3236 28.4739C10.6507 27.8796 10.0734 27.37 8.8735 26.5414L7.85882 28.0109ZM10.1415 29.8123C10.3156 29.9661 10.5016 30.1304 10.7096 30.3099L11.8764 28.9582C11.6772 28.7862 11.4984 28.6283 11.3236 28.4739L10.1415 29.8123ZM10.7096 30.3099C11.2102 30.742 11.7948 31.1585 12.5125 31.1585C13.2302 31.1585 13.8148 30.742 14.3154 30.3099L13.1486 28.9582C12.6736 29.3682 12.5265 29.3728 12.5125 29.3728C12.4985 29.3728 12.3514 29.3682 11.8764 28.9582L10.7096 30.3099ZM14.2898 30.3313L14.2898 30.3312L13.1743 28.9368L13.1743 28.9368L14.2898 30.3313ZM14.3154 30.3099C15.2994 29.4606 16.2376 28.6521 17.1662 28.0109L16.1515 26.5414C15.1289 27.2476 14.1158 28.1233 13.1486 28.9581L14.3154 30.3099ZM17.1662 28.0109C17.4646 27.8048 17.6663 27.6669 17.8775 27.5558L17.0461 25.9754C16.723 26.1454 16.4318 26.3479 16.1515 26.5414L17.1662 28.0109ZM20.6431 25.8728H17.4618V27.6585H20.6431V25.8728ZM22.2865 25.4733C21.7955 25.7283 21.2375 25.8728 20.6431 25.8728V27.6585C21.5307 27.6585 22.3704 27.4419 23.1096 27.058L22.2865 25.4733ZM24.2146 22.3013C24.2146 23.6797 23.4339 24.8773 22.2865 25.4733L23.1096 27.058C24.8252 26.1669 26.0003 24.3721 26.0003 22.3013H24.2146ZM24.2146 6.22991V22.3013H26.0003V6.22991H24.2146Z" fill="white" fill-opacity="0.6" mask="url(#path-1-outside-1_1496_1891)"/>
<mask id="mask0_1496_1891" style="mask-type:alpha" maskUnits="userSpaceOnUse" x="0" y="0" width="26" height="32">
<mask id="path-3-outside-2_1496_1891" maskUnits="userSpaceOnUse" x="0.107422" y="0.765625" width="26" height="31" fill="black">
<rect fill="white" x="0.107422" y="0.765625" width="26" height="31"/>
<path fill-rule="evenodd" clip-rule="evenodd" d="M25.1074 6.22991C25.1074 3.76435 23.1087 1.76563 20.6431 1.76563L5.46457 1.76563C2.99901 1.76563 1.00028 3.76435 1.00028 6.22991V22.3013C1.00028 24.0259 1.97816 25.5221 3.40969 26.2656C4.02476 26.5851 4.72359 26.7656 5.46457 26.7656H7.40664C7.73294 26.8978 8.06021 27.0649 8.36616 27.2762C9.52414 28.0758 10.0713 28.559 10.7326 29.1431C10.907 29.2972 11.0894 29.4583 11.293 29.634C12.2686 30.4762 12.7564 30.4762 13.732 29.634L13.732 29.634C14.7076 28.7919 15.6832 27.9498 16.6588 27.2761C16.9482 27.0763 17.1946 26.9062 17.4618 26.7656H20.6431C21.3841 26.7656 22.0829 26.5851 22.698 26.2656C24.1295 25.5221 25.1074 24.0259 25.1074 22.3013V6.22991Z"/>
</mask>
<path fill-rule="evenodd" clip-rule="evenodd" d="M25.1074 6.22991C25.1074 3.76435 23.1087 1.76563 20.6431 1.76563L5.46457 1.76563C2.99901 1.76563 1.00028 3.76435 1.00028 6.22991V22.3013C1.00028 24.0259 1.97816 25.5221 3.40969 26.2656C4.02476 26.5851 4.72359 26.7656 5.46457 26.7656H7.40664C7.73294 26.8978 8.06021 27.0649 8.36616 27.2762C9.52414 28.0758 10.0713 28.559 10.7326 29.1431C10.907 29.2972 11.0894 29.4583 11.293 29.634C12.2686 30.4762 12.7564 30.4762 13.732 29.634L13.732 29.634C14.7076 28.7919 15.6832 27.9498 16.6588 27.2761C16.9482 27.0763 17.1946 26.9062 17.4618 26.7656H20.6431C21.3841 26.7656 22.0829 26.5851 22.698 26.2656C24.1295 25.5221 25.1074 24.0259 25.1074 22.3013V6.22991Z" fill="black" fill-opacity="0.6"/>
<path d="M3.40969 26.2656L3.82124 25.4733H3.82124L3.40969 26.2656ZM7.40664 26.7656L7.74183 25.9381L7.58059 25.8728H7.40664V26.7656ZM8.36616 27.2762L7.85882 28.0109L8.36616 27.2762ZM10.7326 29.1431L11.3236 28.4739L11.3236 28.4739L10.7326 29.1431ZM11.293 29.634L10.7096 30.3099L11.293 29.634ZM13.732 29.634L13.1743 28.9368L13.1612 28.9473L13.1486 28.9582L13.732 29.634ZM13.732 29.634L14.2898 30.3312L14.3028 30.3208L14.3154 30.3099L13.732 29.634ZM16.6588 27.2761L17.1662 28.0109H17.1662L16.6588 27.2761ZM17.4618 26.7656V25.8728H17.2413L17.0461 25.9754L17.4618 26.7656ZM22.698 26.2656L22.2865 25.4733H22.2865L22.698 26.2656ZM20.6431 2.65848C22.6156 2.65848 24.2146 4.25747 24.2146 6.22991H26.0003C26.0003 3.27124 23.6018 0.872768 20.6431 0.872768V2.65848ZM5.46457 2.65848L20.6431 2.65848V0.872768L5.46457 0.872768V2.65848ZM1.89314 6.22991C1.89314 4.25746 3.49212 2.65848 5.46457 2.65848V0.872768C2.5059 0.872768 0.107424 3.27124 0.107424 6.22991H1.89314ZM1.89314 22.3013V6.22991H0.107424V22.3013H1.89314ZM3.82124 25.4733C2.67378 24.8773 1.89314 23.6797 1.89314 22.3013H0.107424C0.107424 24.3721 1.28255 26.1669 2.99814 27.058L3.82124 25.4733ZM5.46457 25.8728C4.8702 25.8728 4.31219 25.7283 3.82124 25.4733L2.99814 27.058C3.73734 27.4419 4.57697 27.6585 5.46457 27.6585V25.8728ZM7.40664 25.8728H5.46457V27.6585H7.40664V25.8728ZM7.07145 27.5932C7.34861 27.7054 7.61599 27.8432 7.85882 28.0109L8.8735 26.5414C8.50443 26.2866 8.11727 26.0901 7.74183 25.9381L7.07145 27.5932ZM7.85882 28.0109C8.97484 28.7815 9.49182 29.2385 10.1415 29.8123L11.3236 28.4739C10.6507 27.8796 10.0734 27.37 8.8735 26.5414L7.85882 28.0109ZM10.1415 29.8123C10.3156 29.9661 10.5016 30.1304 10.7096 30.3099L11.8764 28.9582C11.6772 28.7862 11.4984 28.6283 11.3236 28.4739L10.1415 29.8123ZM10.7096 30.3099C11.2102 30.742 11.7948 31.1585 12.5125 31.1585C13.2302 31.1585 13.8148 30.742 14.3154 30.3099L13.1486 28.9582C12.6736 29.3682 12.5265 29.3728 12.5125 29.3728C12.4985 29.3728 12.3514 29.3682 11.8764 28.9582L10.7096 30.3099ZM14.2898 30.3313L14.2898 30.3312L13.1743 28.9368L13.1743 28.9368L14.2898 30.3313ZM14.3154 30.3099C15.2994 29.4606 16.2376 28.6521 17.1662 28.0109L16.1515 26.5414C15.1289 27.2476 14.1158 28.1233 13.1486 28.9581L14.3154 30.3099ZM17.1662 28.0109C17.4646 27.8048 17.6663 27.6669 17.8775 27.5558L17.0461 25.9754C16.723 26.1454 16.4318 26.3479 16.1515 26.5414L17.1662 28.0109ZM20.6431 25.8728H17.4618V27.6585H20.6431V25.8728ZM22.2865 25.4733C21.7955 25.7283 21.2375 25.8728 20.6431 25.8728V27.6585C21.5307 27.6585 22.3704 27.4419 23.1096 27.058L22.2865 25.4733ZM24.2146 22.3013C24.2146 23.6797 23.4339 24.8773 22.2865 25.4733L23.1096 27.058C24.8252 26.1669 26.0003 24.3721 26.0003 22.3013H24.2146ZM24.2146 6.22991V22.3013H26.0003V6.22991H24.2146Z" fill="white" fill-opacity="0.6" mask="url(#path-3-outside-2_1496_1891)"/>
</mask>
<g mask="url(#mask0_1496_1891)">
<path d="M21.7144 1.76562L26.0004 1.76563V32.1228H9.03613L21.7144 1.76562Z" fill="url(#paint0_linear_1496_1891)" fill-opacity="0.1"/>
</g>
<g filter="url(#filter0_dd_1496_1891)">
<rect x="3.67871" y="4.44141" width="18.75" height="19.6429" rx="3.57143" fill="white"/>
<rect x="3.67871" y="4.44141" width="18.75" height="19.6429" rx="3.57143" fill="url(#paint1_linear_1496_1891)" fill-opacity="0.17"/>
<path d="M13.1795 17.8906C13.1021 17.8906 13.0364 17.8674 12.9822 17.821C12.9358 17.7668 12.9126 17.701 12.9126 17.6237V11.1237L10.9858 12.6094C10.9239 12.6558 10.8581 12.6751 10.7884 12.6674C10.7188 12.6597 10.6608 12.6249 10.6143 12.5629L10.3126 12.1799C10.2661 12.1103 10.2468 12.0406 10.2545 11.971C10.27 11.9013 10.3087 11.8433 10.3706 11.7969L12.9009 9.84688C12.9551 9.80818 13.0054 9.78497 13.0518 9.77723C13.0983 9.76949 13.1486 9.76562 13.2027 9.76562H13.7947C13.8721 9.76562 13.934 9.79271 13.9804 9.84688C14.0346 9.8933 14.0617 9.95521 14.0617 10.0326V17.6237C14.0617 17.701 14.0346 17.7668 13.9804 17.821C13.934 17.8674 13.8721 17.8906 13.7947 17.8906H13.1795Z" fill="black"/>
</g>
<defs>
<filter id="filter0_dd_1496_1891" x="1.44657" y="3.10212" width="23.2143" height="24.1088" filterUnits="userSpaceOnUse" color-interpolation-filters="sRGB">
<feFlood flood-opacity="0" result="BackgroundImageFix"/>
<feColorMatrix in="SourceAlpha" type="matrix" values="0 0 0 0 0 0 0 0 0 0 0 0 0 0 0 0 0 0 127 0" result="hardAlpha"/>
<feMorphology radius="0.446429" operator="dilate" in="SourceAlpha" result="effect1_dropShadow_1496_1891"/>
<feOffset/>
<feComposite in2="hardAlpha" operator="out"/>
<feColorMatrix type="matrix" values="0 0 0 0 0 0 0 0 0 0.478431 0 0 0 0 1 0 0 0 0.12 0"/>
<feBlend mode="normal" in2="BackgroundImageFix" result="effect1_dropShadow_1496_1891"/>
<feColorMatrix in="SourceAlpha" type="matrix" values="0 0 0 0 0 0 0 0 0 0 0 0 0 0 0 0 0 0 127 0" result="hardAlpha"/>
<feOffset dy="0.892857"/>
<feGaussianBlur stdDeviation="1.11607"/>
<feComposite in2="hardAlpha" operator="out"/>
<feColorMatrix type="matrix" values="0 0 0 0 0 0 0 0 0 0.478431 0 0 0 0 1 0 0 0 0.24 0"/>
<feBlend mode="normal" in2="effect1_dropShadow_1496_1891" result="effect2_dropShadow_1496_1891"/>
<feBlend mode="normal" in="SourceGraphic" in2="effect2_dropShadow_1496_1891" result="shape"/>
</filter>
<linearGradient id="paint0_linear_1496_1891" x1="7.60118" y1="26.7656" x2="56.4125" y2="26.7656" gradientUnits="userSpaceOnUse">
<stop stop-color="white"/>
<stop offset="1" stop-color="white" stop-opacity="0"/>
</linearGradient>
<linearGradient id="paint1_linear_1496_1891" x1="13.0537" y1="4.44141" x2="13.0537" y2="24.0843" gradientUnits="userSpaceOnUse">
<stop offset="0.43" stop-color="white" stop-opacity="0"/>
<stop offset="1" stop-color="white"/>
</linearGradient>
</defs>
</svg>
