<svg width="532" height="140" viewBox="0 0 532 140" fill="none" xmlns="http://www.w3.org/2000/svg">
<g clip-path="url(#clip0_1490_2381)">
<path d="M338.858 98.7528V44.3968C338.997 44.3 339.149 44.3434 339.295 44.3434C341.553 44.3434 343.808 44.3468 346.066 44.3401C348.754 44.3301 351.445 44.3234 354.133 44.2834C355.729 44.26 357.321 44.2467 358.917 44.27C361.429 44.3034 363.945 44.2934 366.453 44.4268C368.448 44.5336 370.446 44.6604 372.41 45.0475C374.266 45.4145 376.092 45.8984 377.837 46.6191C380.095 47.5534 381.992 48.9882 383.503 50.8968C384.196 51.7744 384.534 52.8255 384.893 53.8532C385.562 55.7785 385.697 57.7539 385.434 59.7693C385.292 60.8571 385.109 61.9282 384.653 62.9393C383.676 65.0915 382.022 66.543 379.842 67.4472C378.428 68.0312 376.944 68.3715 375.463 68.7286C373.898 69.1056 372.299 69.2691 370.703 69.4493C368.999 69.6428 367.292 69.813 365.588 69.9832C364.621 70.0799 363.65 70.1567 362.684 70.2434C362.589 70.2501 362.498 70.2635 362.403 70.2902C362.778 70.3669 363.157 70.3302 363.532 70.3402C365.49 70.4036 367.447 70.437 369.405 70.5104C371.511 70.5905 373.614 70.6772 375.71 70.9008C376.795 71.0142 377.81 71.388 378.814 71.775C380.521 72.4324 382.11 73.2999 383.527 74.4611C385.545 76.1128 386.759 78.2517 387.422 80.7242C387.854 82.3292 388.077 83.9676 388.125 85.6193C388.186 87.6948 387.837 89.6801 386.529 91.4052C385.413 92.8768 384.091 94.108 382.428 94.9656C380.274 96.0767 377.996 96.8442 375.653 97.4548C374.256 97.8185 372.847 98.1322 371.41 98.2923C370.081 98.4392 368.742 98.4725 367.407 98.5159C364.678 98.6027 361.95 98.6627 359.222 98.6761C357.683 98.6827 356.142 98.7328 354.603 98.7361C349.522 98.7495 344.437 98.7461 339.355 98.7528C339.196 98.7528 339.038 98.7528 338.862 98.7528H338.858ZM358.228 70.4937C358.484 70.3302 358.687 70.2735 358.9 70.2735C359.252 70.2735 359.6 70.2201 359.948 70.18C362.068 69.9265 364.175 69.6128 366.254 69.129C368.137 68.6885 369.976 68.1213 371.683 67.1936C373.709 66.0958 375.271 64.5643 376.231 62.4688C377.316 60.0997 377.779 57.6271 377.512 55.0344C377.367 53.613 376.995 52.2683 376.156 51.067C374.953 49.3386 373.377 48.0272 371.545 46.9995C370.051 46.162 368.472 45.578 366.734 45.4512C364.455 45.2877 362.176 45.211 359.894 45.211C357.693 45.211 355.489 45.1709 353.288 45.1309C351.141 45.0942 348.991 45.0642 346.844 45.0375C346.702 45.0375 346.547 44.9908 346.418 45.0975V97.8819C346.584 97.962 346.736 97.932 346.878 97.9286C349.133 97.8886 351.388 97.8285 353.643 97.8018C356.182 97.7718 358.721 97.7451 361.26 97.645C364.215 97.5282 367.17 97.3881 370.115 97.1445C371.43 97.0344 372.654 96.6807 373.783 96C375.024 95.2492 376.167 94.385 377.177 93.3539C377.81 92.7099 378.398 92.0292 378.777 91.205C379.639 89.3264 380.126 87.3577 380.156 85.2923C380.193 82.9399 379.649 80.7209 378.543 78.6388C377.867 77.3675 377.046 76.1896 375.916 75.2686C373.59 73.3733 370.953 72.1154 367.968 71.6215C365.97 71.2912 363.972 70.9809 361.967 70.6906C360.98 70.5471 359.992 70.3836 358.985 70.4937C358.758 70.5204 358.528 70.497 358.224 70.497L358.228 70.4937Z" fill="white"/>
<path d="M338.858 98.7528V44.3968C338.997 44.3 339.149 44.3434 339.295 44.3434C341.553 44.3434 343.808 44.3468 346.066 44.3401C348.754 44.3301 351.445 44.3234 354.133 44.2834C355.729 44.26 357.321 44.2467 358.917 44.27C361.429 44.3034 363.945 44.2934 366.453 44.4268C368.448 44.5336 370.446 44.6604 372.41 45.0475C374.266 45.4145 376.092 45.8984 377.837 46.6191C380.095 47.5534 381.992 48.9882 383.503 50.8968C384.196 51.7744 384.534 52.8255 384.893 53.8532C385.562 55.7785 385.697 57.7539 385.434 59.7693C385.292 60.8571 385.109 61.9282 384.653 62.9393C383.676 65.0915 382.022 66.543 379.842 67.4472C378.428 68.0312 376.944 68.3715 375.463 68.7286C373.898 69.1056 372.299 69.2691 370.703 69.4493C368.999 69.6428 367.292 69.813 365.588 69.9832C364.621 70.0799 363.65 70.1567 362.684 70.2434C362.589 70.2501 362.498 70.2635 362.403 70.2902C362.778 70.3669 363.157 70.3302 363.532 70.3402C365.49 70.4036 367.447 70.437 369.405 70.5104C371.511 70.5905 373.614 70.6772 375.71 70.9008C376.795 71.0142 377.81 71.388 378.814 71.775C380.521 72.4324 382.11 73.2999 383.527 74.4611C385.545 76.1128 386.759 78.2517 387.422 80.7242C387.854 82.3292 388.077 83.9676 388.125 85.6193C388.186 87.6948 387.837 89.6801 386.529 91.4052C385.413 92.8768 384.091 94.108 382.428 94.9656C380.274 96.0767 377.996 96.8442 375.653 97.4548C374.256 97.8185 372.847 98.1322 371.41 98.2923C370.081 98.4392 368.742 98.4725 367.407 98.5159C364.678 98.6027 361.95 98.6627 359.222 98.6761C357.683 98.6827 356.142 98.7328 354.603 98.7361C349.522 98.7495 344.437 98.7461 339.355 98.7528C339.196 98.7528 339.038 98.7528 338.862 98.7528H338.858ZM358.228 70.4937C358.484 70.3302 358.687 70.2735 358.9 70.2735C359.252 70.2735 359.6 70.2201 359.948 70.18C362.068 69.9265 364.175 69.6128 366.254 69.129C368.137 68.6885 369.976 68.1213 371.683 67.1936C373.709 66.0958 375.271 64.5643 376.231 62.4688C377.316 60.0997 377.779 57.6271 377.512 55.0344C377.367 53.613 376.995 52.2683 376.156 51.067C374.953 49.3386 373.377 48.0272 371.545 46.9995C370.051 46.162 368.472 45.578 366.734 45.4512C364.455 45.2877 362.176 45.211 359.894 45.211C357.693 45.211 355.489 45.1709 353.288 45.1309C351.141 45.0942 348.991 45.0642 346.844 45.0375C346.702 45.0375 346.547 44.9908 346.418 45.0975V97.8819C346.584 97.962 346.736 97.932 346.878 97.9286C349.133 97.8886 351.388 97.8285 353.643 97.8018C356.182 97.7718 358.721 97.7451 361.26 97.645C364.215 97.5282 367.17 97.3881 370.115 97.1445C371.43 97.0344 372.654 96.6807 373.783 96C375.024 95.2492 376.167 94.385 377.177 93.3539C377.81 92.7099 378.398 92.0292 378.777 91.205C379.639 89.3264 380.126 87.3577 380.156 85.2923C380.193 82.9399 379.649 80.7209 378.543 78.6388C377.867 77.3675 377.046 76.1896 375.916 75.2686C373.59 73.3733 370.953 72.1154 367.968 71.6215C365.97 71.2912 363.972 70.9809 361.967 70.6906C360.98 70.5471 359.992 70.3836 358.985 70.4937C358.758 70.5204 358.528 70.497 358.224 70.497L358.228 70.4937Z" fill="white" fill-opacity="0.2"/>
<path d="M437.601 43.6055C447.152 62.1412 456.7 80.667 466.244 99.1894C466.085 99.2895 465.947 99.2561 465.815 99.2561C462.988 99.2561 460.165 99.2528 457.339 99.2661C457.014 99.2661 456.869 99.1527 456.73 98.8791C454.925 95.2754 453.106 91.675 451.294 88.0746C449.424 84.3675 447.555 80.6603 445.685 76.9498C443.893 73.3962 442.105 69.8458 440.313 66.2922C438.338 62.3681 436.364 58.4441 434.386 54.5234C434.315 54.3832 434.268 54.2264 434.102 54.0696C429.504 62.9954 424.936 71.9113 420.45 80.8639C420.558 80.9573 420.643 80.8872 420.724 80.8572C422.654 80.1565 424.632 79.6226 426.671 79.3356C430.562 78.785 434.349 79.082 437.96 80.7304C439.505 81.4344 440.918 82.332 442.115 83.5366C442.321 83.7435 442.503 83.9704 442.757 84.254C442.331 84.254 441.986 84.254 441.641 84.254C441.533 84.254 441.472 84.1839 441.405 84.1205C439.217 82.1619 436.628 80.994 433.757 80.4134C430.129 79.6793 426.586 80.1064 423.101 81.2409C421.998 81.6013 420.927 82.0417 419.872 82.5189C419.635 82.6257 419.49 82.7758 419.375 83.0027C416.839 88.0346 414.297 93.0631 411.754 98.0916C411.677 98.2451 411.595 98.3986 411.514 98.5621H410.26C412.782 93.4735 415.291 88.4183 417.826 83.3097C417.204 83.4532 416.646 83.6033 416.082 83.7135C414.303 84.0505 412.515 84.1105 410.716 83.957C407.095 83.6434 403.728 82.5322 400.56 80.8038C400.418 80.727 400.28 80.6403 400.141 80.5569C400.097 80.5302 400.053 80.4968 399.989 80.4468C399.982 80.053 399.965 79.6459 399.999 79.2422C400.148 79.2222 400.219 79.3189 400.307 79.3723C403.309 81.2042 406.544 82.4121 410.047 82.8726C412.836 83.2396 415.571 83.0027 418.205 81.9416C418.472 81.8349 418.645 81.6847 418.773 81.4244C420.308 78.3112 421.853 75.2047 423.395 72.0948C425.856 67.133 428.317 62.1679 430.779 57.2061C432.435 53.8694 434.092 50.5359 435.748 47.1992C436.3 46.088 436.847 44.9735 437.402 43.8624C437.442 43.7823 437.459 43.6822 437.605 43.6088L437.601 43.6055Z" fill="white"/>
<path d="M437.601 43.6055C447.152 62.1412 456.7 80.667 466.244 99.1894C466.085 99.2895 465.947 99.2561 465.815 99.2561C462.988 99.2561 460.165 99.2528 457.339 99.2661C457.014 99.2661 456.869 99.1527 456.73 98.8791C454.925 95.2754 453.106 91.675 451.294 88.0746C449.424 84.3675 447.555 80.6603 445.685 76.9498C443.893 73.3962 442.105 69.8458 440.313 66.2922C438.338 62.3681 436.364 58.4441 434.386 54.5234C434.315 54.3832 434.268 54.2264 434.102 54.0696C429.504 62.9954 424.936 71.9113 420.45 80.8639C420.558 80.9573 420.643 80.8872 420.724 80.8572C422.654 80.1565 424.632 79.6226 426.671 79.3356C430.562 78.785 434.349 79.082 437.96 80.7304C439.505 81.4344 440.918 82.332 442.115 83.5366C442.321 83.7435 442.503 83.9704 442.757 84.254C442.331 84.254 441.986 84.254 441.641 84.254C441.533 84.254 441.472 84.1839 441.405 84.1205C439.217 82.1619 436.628 80.994 433.757 80.4134C430.129 79.6793 426.586 80.1064 423.101 81.2409C421.998 81.6013 420.927 82.0417 419.872 82.5189C419.635 82.6257 419.49 82.7758 419.375 83.0027C416.839 88.0346 414.297 93.0631 411.754 98.0916C411.677 98.2451 411.595 98.3986 411.514 98.5621H410.26C412.782 93.4735 415.291 88.4183 417.826 83.3097C417.204 83.4532 416.646 83.6033 416.082 83.7135C414.303 84.0505 412.515 84.1105 410.716 83.957C407.095 83.6434 403.728 82.5322 400.56 80.8038C400.418 80.727 400.28 80.6403 400.141 80.5569C400.097 80.5302 400.053 80.4968 399.989 80.4468C399.982 80.053 399.965 79.6459 399.999 79.2422C400.148 79.2222 400.219 79.3189 400.307 79.3723C403.309 81.2042 406.544 82.4121 410.047 82.8726C412.836 83.2396 415.571 83.0027 418.205 81.9416C418.472 81.8349 418.645 81.6847 418.773 81.4244C420.308 78.3112 421.853 75.2047 423.395 72.0948C425.856 67.133 428.317 62.1679 430.779 57.2061C432.435 53.8694 434.092 50.5359 435.748 47.1992C436.3 46.088 436.847 44.9735 437.402 43.8624C437.442 43.7823 437.459 43.6822 437.605 43.6088L437.601 43.6055Z" fill="white" fill-opacity="0.2"/>
<path d="M425.899 18.3281H431.836C432.221 19.1323 432.603 19.9364 432.985 20.7439C433.256 21.3112 433.51 21.8851 433.794 22.4424C433.912 22.6793 433.908 22.8828 433.817 23.1231C433.334 24.3944 432.864 25.6724 432.397 26.947C432.35 27.0771 432.255 27.2039 432.289 27.3608C432.448 27.3875 432.512 27.2673 432.593 27.1906C435.876 24.2509 439.304 21.478 442.682 18.6484C442.966 18.4115 443.243 18.3014 443.622 18.3048C445.245 18.3248 446.867 18.3148 448.487 18.3148C448.636 18.3148 448.781 18.3148 449.004 18.3148C447.246 22.7827 445.502 27.2106 443.757 31.6352C444.014 31.5618 444.153 31.3849 444.308 31.2281C445.671 29.8767 447.026 28.5186 448.392 27.1672C450.671 24.9082 452.953 22.6526 455.235 20.3936C455.864 19.7696 456.489 19.1423 457.115 18.515C457.23 18.3982 457.338 18.3081 457.527 18.3081C459.583 18.3148 461.635 18.3148 463.691 18.3148C463.741 18.3148 463.792 18.3315 463.87 18.3415C464.935 23.0597 466 27.7745 467.072 32.5194H463.762C463.512 31.2948 463.258 30.0602 463.008 28.8356C462.859 28.7689 462.72 28.7956 462.589 28.7956C459.749 28.7956 456.912 28.7956 454.072 28.7889C453.788 28.7889 453.602 28.8723 453.409 29.0725C452.392 30.1403 451.354 31.1914 450.333 32.2591C450.13 32.4694 449.924 32.5528 449.63 32.5528C445.603 32.5428 441.573 32.5461 437.546 32.5461H437.063C437.732 30.841 438.371 29.186 439.031 27.5343C439.693 25.8826 440.292 24.2042 441.032 22.5892C437.888 25.4154 434.585 28.0415 431.38 30.7776C431.129 30.9912 430.886 31.0846 430.528 30.9878C429.953 29.5997 429.351 28.1916 428.783 26.7701C428.215 25.3487 427.502 23.9839 427.133 22.5024C425.882 25.8425 424.523 29.1526 423.225 32.4994H413.63C413.39 31.2815 413.153 30.0602 412.916 28.8623C412.754 28.7956 412.632 28.8156 412.511 28.8156C409.765 28.8156 407.024 28.8156 404.278 28.8089C404.011 28.8089 403.825 28.8923 403.646 29.0792C402.618 30.1403 401.577 31.1847 400.549 32.2458C400.356 32.4427 400.16 32.5328 399.88 32.5294C398.974 32.5127 398.068 32.5261 397.162 32.5227C397.033 32.5227 396.894 32.5661 396.752 32.4527C396.854 32.3426 396.952 32.2358 397.053 32.1357C398.656 30.5474 400.258 28.9624 401.861 27.3741C404.806 24.4511 407.75 21.5281 410.685 18.5984C410.881 18.4049 411.071 18.3148 411.351 18.3181C413.244 18.3315 415.138 18.3248 417.028 18.3248C417.16 18.3248 417.298 18.3014 417.467 18.3682C418.478 22.8261 419.496 27.304 420.513 31.782C420.537 31.7853 420.561 31.792 420.584 31.7953C422.353 27.314 424.117 22.8328 425.892 18.3315L425.899 18.3281ZM462.616 26.8235C462.207 24.8081 461.811 22.8661 461.402 20.8507C459.438 22.8795 457.544 24.8382 455.624 26.8235H462.616ZM412.518 26.8469C412.176 24.9249 411.841 23.0563 411.493 21.1143C409.59 23.043 407.737 24.9249 405.84 26.8469H412.514H412.518Z" fill="white"/>
<path d="M425.899 18.3281H431.836C432.221 19.1323 432.603 19.9364 432.985 20.7439C433.256 21.3112 433.51 21.8851 433.794 22.4424C433.912 22.6793 433.908 22.8828 433.817 23.1231C433.334 24.3944 432.864 25.6724 432.397 26.947C432.35 27.0771 432.255 27.2039 432.289 27.3608C432.448 27.3875 432.512 27.2673 432.593 27.1906C435.876 24.2509 439.304 21.478 442.682 18.6484C442.966 18.4115 443.243 18.3014 443.622 18.3048C445.245 18.3248 446.867 18.3148 448.487 18.3148C448.636 18.3148 448.781 18.3148 449.004 18.3148C447.246 22.7827 445.502 27.2106 443.757 31.6352C444.014 31.5618 444.153 31.3849 444.308 31.2281C445.671 29.8767 447.026 28.5186 448.392 27.1672C450.671 24.9082 452.953 22.6526 455.235 20.3936C455.864 19.7696 456.489 19.1423 457.115 18.515C457.23 18.3982 457.338 18.3081 457.527 18.3081C459.583 18.3148 461.635 18.3148 463.691 18.3148C463.741 18.3148 463.792 18.3315 463.87 18.3415C464.935 23.0597 466 27.7745 467.072 32.5194H463.762C463.512 31.2948 463.258 30.0602 463.008 28.8356C462.859 28.7689 462.72 28.7956 462.589 28.7956C459.749 28.7956 456.912 28.7956 454.072 28.7889C453.788 28.7889 453.602 28.8723 453.409 29.0725C452.392 30.1403 451.354 31.1914 450.333 32.2591C450.13 32.4694 449.924 32.5528 449.63 32.5528C445.603 32.5428 441.573 32.5461 437.546 32.5461H437.063C437.732 30.841 438.371 29.186 439.031 27.5343C439.693 25.8826 440.292 24.2042 441.032 22.5892C437.888 25.4154 434.585 28.0415 431.38 30.7776C431.129 30.9912 430.886 31.0846 430.528 30.9878C429.953 29.5997 429.351 28.1916 428.783 26.7701C428.215 25.3487 427.502 23.9839 427.133 22.5024C425.882 25.8425 424.523 29.1526 423.225 32.4994H413.63C413.39 31.2815 413.153 30.0602 412.916 28.8623C412.754 28.7956 412.632 28.8156 412.511 28.8156C409.765 28.8156 407.024 28.8156 404.278 28.8089C404.011 28.8089 403.825 28.8923 403.646 29.0792C402.618 30.1403 401.577 31.1847 400.549 32.2458C400.356 32.4427 400.16 32.5328 399.88 32.5294C398.974 32.5127 398.068 32.5261 397.162 32.5227C397.033 32.5227 396.894 32.5661 396.752 32.4527C396.854 32.3426 396.952 32.2358 397.053 32.1357C398.656 30.5474 400.258 28.9624 401.861 27.3741C404.806 24.4511 407.75 21.5281 410.685 18.5984C410.881 18.4049 411.071 18.3148 411.351 18.3181C413.244 18.3315 415.138 18.3248 417.028 18.3248C417.16 18.3248 417.298 18.3014 417.467 18.3682C418.478 22.8261 419.496 27.304 420.513 31.782C420.537 31.7853 420.561 31.792 420.584 31.7953C422.353 27.314 424.117 22.8328 425.892 18.3315L425.899 18.3281ZM462.616 26.8235C462.207 24.8081 461.811 22.8661 461.402 20.8507C459.438 22.8795 457.544 24.8382 455.624 26.8235H462.616ZM412.518 26.8469C412.176 24.9249 411.841 23.0563 411.493 21.1143C409.59 23.043 407.737 24.9249 405.84 26.8469H412.514H412.518Z" fill="white" fill-opacity="0.2"/>
<path d="M475.943 44.487C476.092 44.4202 476.213 44.4436 476.335 44.4436C479.107 44.4436 481.876 44.4469 484.649 44.4336C484.956 44.4336 485.135 44.5337 485.311 44.7773C491.069 52.7588 496.833 60.7337 502.594 68.7086C504.413 71.2279 506.232 73.7438 508.051 76.2631C508.129 76.3698 508.186 76.4933 508.315 76.57C508.487 76.4132 508.589 76.2097 508.714 76.0228C513.133 69.4794 517.545 62.936 521.96 56.3892C524.533 52.572 527.106 48.7547 529.685 44.9408C530.091 44.3402 529.878 44.4503 530.652 44.4436C530.781 44.4436 530.919 44.4036 531.068 44.517C530.798 44.9274 530.531 45.3379 530.257 45.7483C526.382 51.5743 522.508 57.4003 518.63 63.2263C515.31 68.2181 511.997 73.2099 508.67 78.195C508.524 78.4153 508.497 78.6288 508.497 78.8724C508.497 85.4192 508.497 91.9692 508.497 98.516C508.497 98.6861 508.528 98.8597 508.453 99.0599H500.63C500.542 98.8797 500.579 98.7028 500.579 98.5327C500.579 91.9993 500.576 85.4625 500.579 78.9291C500.579 78.6222 500.505 78.3719 500.319 78.1216C493.07 68.148 485.825 58.1677 478.58 48.1875C477.768 47.073 476.957 45.9552 476.149 44.8407C476.071 44.7339 475.973 44.6371 475.933 44.487H475.943Z" fill="white"/>
<path d="M475.943 44.487C476.092 44.4202 476.213 44.4436 476.335 44.4436C479.107 44.4436 481.876 44.4469 484.649 44.4336C484.956 44.4336 485.135 44.5337 485.311 44.7773C491.069 52.7588 496.833 60.7337 502.594 68.7086C504.413 71.2279 506.232 73.7438 508.051 76.2631C508.129 76.3698 508.186 76.4933 508.315 76.57C508.487 76.4132 508.589 76.2097 508.714 76.0228C513.133 69.4794 517.545 62.936 521.96 56.3892C524.533 52.572 527.106 48.7547 529.685 44.9408C530.091 44.3402 529.878 44.4503 530.652 44.4436C530.781 44.4436 530.919 44.4036 531.068 44.517C530.798 44.9274 530.531 45.3379 530.257 45.7483C526.382 51.5743 522.508 57.4003 518.63 63.2263C515.31 68.2181 511.997 73.2099 508.67 78.195C508.524 78.4153 508.497 78.6288 508.497 78.8724C508.497 85.4192 508.497 91.9692 508.497 98.516C508.497 98.6861 508.528 98.8597 508.453 99.0599H500.63C500.542 98.8797 500.579 98.7028 500.579 98.5327C500.579 91.9993 500.576 85.4625 500.579 78.9291C500.579 78.6222 500.505 78.3719 500.319 78.1216C493.07 68.148 485.825 58.1677 478.58 48.1875C477.768 47.073 476.957 45.9552 476.149 44.8407C476.071 44.7339 475.973 44.6371 475.933 44.487H475.943Z" fill="white" fill-opacity="0.2"/>
<path d="M379.613 32.4504C380.688 29.7342 381.756 27.0348 382.828 24.3287H385.736C384.978 26.2406 384.234 28.1293 383.494 29.9945C383.545 30.0779 383.602 30.0713 383.653 30.0713C385.272 30.0546 386.895 30.1213 388.515 29.9945C389.434 29.9211 390.327 29.7442 391.182 29.3739C391.872 29.0736 392.45 28.6398 392.835 28.0091C393.691 26.6077 394.377 25.1295 394.594 23.4945C394.769 22.1831 394.13 21.2555 392.994 20.8484C392.416 20.6415 391.818 20.5481 391.206 20.5481C389.083 20.5481 386.963 20.5481 384.84 20.5481C384.691 20.5481 384.546 20.5481 384.329 20.5481C384.623 19.7907 384.904 19.0666 385.181 18.3625C385.33 18.2791 385.465 18.3125 385.6 18.3091C388.87 18.3091 392.142 18.2991 395.412 18.3091C396.551 18.3125 397.674 18.466 398.749 18.8664C399.929 19.3035 400.841 20.0276 401.257 21.2455C401.541 22.0764 401.518 22.9272 401.328 23.7714C400.879 25.7868 399.888 27.5153 398.471 29.0202C397.291 30.2748 395.888 31.2024 394.259 31.7697C393.302 32.1033 392.301 32.2668 391.294 32.3836C390.273 32.5038 389.252 32.5204 388.224 32.5138C385.536 32.4904 382.845 32.5071 380.154 32.5038C379.995 32.5038 379.829 32.5338 379.613 32.4437V32.4504Z" fill="white"/>
<path d="M379.613 32.4504C380.688 29.7342 381.756 27.0348 382.828 24.3287H385.736C384.978 26.2406 384.234 28.1293 383.494 29.9945C383.545 30.0779 383.602 30.0713 383.653 30.0713C385.272 30.0546 386.895 30.1213 388.515 29.9945C389.434 29.9211 390.327 29.7442 391.182 29.3739C391.872 29.0736 392.45 28.6398 392.835 28.0091C393.691 26.6077 394.377 25.1295 394.594 23.4945C394.769 22.1831 394.13 21.2555 392.994 20.8484C392.416 20.6415 391.818 20.5481 391.206 20.5481C389.083 20.5481 386.963 20.5481 384.84 20.5481C384.691 20.5481 384.546 20.5481 384.329 20.5481C384.623 19.7907 384.904 19.0666 385.181 18.3625C385.33 18.2791 385.465 18.3125 385.6 18.3091C388.87 18.3091 392.142 18.2991 395.412 18.3091C396.551 18.3125 397.674 18.466 398.749 18.8664C399.929 19.3035 400.841 20.0276 401.257 21.2455C401.541 22.0764 401.518 22.9272 401.328 23.7714C400.879 25.7868 399.888 27.5153 398.471 29.0202C397.291 30.2748 395.888 31.2024 394.259 31.7697C393.302 32.1033 392.301 32.2668 391.294 32.3836C390.273 32.5038 389.252 32.5204 388.224 32.5138C385.536 32.4904 382.845 32.5071 380.154 32.5038C379.995 32.5038 379.829 32.5338 379.613 32.4437V32.4504Z" fill="white" fill-opacity="0.2"/>
<path d="M489.349 18.3935C488.832 19.8584 488.223 21.2698 487.682 22.6979H484.775C485.055 21.9672 485.329 21.2631 485.596 20.5691C485.492 20.4423 485.377 20.489 485.279 20.4857C484.075 20.4823 482.871 20.4523 481.671 20.489C478.686 20.5824 476.515 21.9639 475.193 24.6066C474.693 25.6043 474.345 26.652 474.368 27.7899C474.385 28.6407 474.747 29.2647 475.555 29.6217C476.282 29.9454 477.05 30.0755 477.83 30.1523C479.298 30.2991 480.772 30.2124 482.246 30.2324C483.003 30.2424 483.757 30.2324 484.586 30.2324C484.288 31.0065 484.007 31.7439 483.74 32.4513C483.561 32.5414 483.409 32.5114 483.264 32.5114C480.468 32.5114 477.668 32.5247 474.872 32.5081C473.429 32.498 471.982 32.448 470.575 32.0709C469.003 31.6505 467.968 30.6929 467.657 29.0912C467.438 27.9567 467.573 26.8355 467.965 25.7444C468.719 23.6589 469.943 21.9005 471.785 20.6091C473.303 19.5414 475.007 18.894 476.837 18.5503C477.743 18.3802 478.655 18.3201 479.575 18.3201C482.655 18.3234 485.738 18.3201 488.818 18.3201C488.964 18.3201 489.116 18.2934 489.356 18.3835L489.349 18.3935Z" fill="white"/>
<path d="M489.349 18.3935C488.832 19.8584 488.223 21.2698 487.682 22.6979H484.775C485.055 21.9672 485.329 21.2631 485.596 20.5691C485.492 20.4423 485.377 20.489 485.279 20.4857C484.075 20.4823 482.871 20.4523 481.671 20.489C478.686 20.5824 476.515 21.9639 475.193 24.6066C474.693 25.6043 474.345 26.652 474.368 27.7899C474.385 28.6407 474.747 29.2647 475.555 29.6217C476.282 29.9454 477.05 30.0755 477.83 30.1523C479.298 30.2991 480.772 30.2124 482.246 30.2324C483.003 30.2424 483.757 30.2324 484.586 30.2324C484.288 31.0065 484.007 31.7439 483.74 32.4513C483.561 32.5414 483.409 32.5114 483.264 32.5114C480.468 32.5114 477.668 32.5247 474.872 32.5081C473.429 32.498 471.982 32.448 470.575 32.0709C469.003 31.6505 467.968 30.6929 467.657 29.0912C467.438 27.9567 467.573 26.8355 467.965 25.7444C468.719 23.6589 469.943 21.9005 471.785 20.6091C473.303 19.5414 475.007 18.894 476.837 18.5503C477.743 18.3802 478.655 18.3201 479.575 18.3201C482.655 18.3234 485.738 18.3201 488.818 18.3201C488.964 18.3201 489.116 18.2934 489.356 18.3835L489.349 18.3935Z" fill="white" fill-opacity="0.2"/>
<path d="M385.812 115.996C386.119 116.076 386.366 116.129 386.61 116.203C387.103 116.353 387.57 116.556 387.952 116.914C388.787 117.691 388.753 118.972 387.867 119.696C387.198 120.244 386.393 120.457 385.558 120.584C384.851 120.694 384.138 120.737 383.418 120.734C381.433 120.731 379.445 120.734 377.461 120.734H377.028C376.944 120.414 376.913 112.416 376.988 111.648C377.099 111.548 377.238 111.591 377.366 111.591C379.378 111.591 381.393 111.581 383.404 111.591C384.256 111.595 385.102 111.688 385.92 111.952C386.437 112.119 386.924 112.339 387.313 112.733C387.982 113.413 387.986 114.458 387.326 115.148C386.924 115.569 386.41 115.792 385.812 115.993V115.996ZM378.455 119.937C378.948 119.937 379.395 119.94 379.838 119.937C381.376 119.917 382.918 119.993 384.456 119.87C385.105 119.817 385.744 119.72 386.322 119.399C386.792 119.139 387.059 118.752 387.056 118.202C387.052 117.648 386.768 117.274 386.292 117.024C386.065 116.904 385.825 116.817 385.575 116.753C384.919 116.583 384.246 116.516 383.57 116.513C382.001 116.513 380.436 116.513 378.867 116.513C378.735 116.513 378.6 116.483 378.451 116.56V119.94L378.455 119.937ZM378.455 115.632C378.556 115.709 378.641 115.692 378.719 115.692C380.203 115.692 381.687 115.699 383.171 115.689C383.641 115.686 384.114 115.639 384.578 115.535C385.041 115.432 385.494 115.299 385.866 114.988C386.481 114.481 386.488 113.63 385.889 113.106C385.683 112.926 385.44 112.816 385.186 112.723C384.611 112.512 384.013 112.432 383.401 112.412C381.876 112.359 380.352 112.399 378.827 112.389C378.708 112.389 378.583 112.362 378.455 112.459V115.632Z" fill="white"/>
<path d="M385.812 115.996C386.119 116.076 386.366 116.129 386.61 116.203C387.103 116.353 387.57 116.556 387.952 116.914C388.787 117.691 388.753 118.972 387.867 119.696C387.198 120.244 386.393 120.457 385.558 120.584C384.851 120.694 384.138 120.737 383.418 120.734C381.433 120.731 379.445 120.734 377.461 120.734H377.028C376.944 120.414 376.913 112.416 376.988 111.648C377.099 111.548 377.238 111.591 377.366 111.591C379.378 111.591 381.393 111.581 383.404 111.591C384.256 111.595 385.102 111.688 385.92 111.952C386.437 112.119 386.924 112.339 387.313 112.733C387.982 113.413 387.986 114.458 387.326 115.148C386.924 115.569 386.41 115.792 385.812 115.993V115.996ZM378.455 119.937C378.948 119.937 379.395 119.94 379.838 119.937C381.376 119.917 382.918 119.993 384.456 119.87C385.105 119.817 385.744 119.72 386.322 119.399C386.792 119.139 387.059 118.752 387.056 118.202C387.052 117.648 386.768 117.274 386.292 117.024C386.065 116.904 385.825 116.817 385.575 116.753C384.919 116.583 384.246 116.516 383.57 116.513C382.001 116.513 380.436 116.513 378.867 116.513C378.735 116.513 378.6 116.483 378.451 116.56V119.94L378.455 119.937ZM378.455 115.632C378.556 115.709 378.641 115.692 378.719 115.692C380.203 115.692 381.687 115.699 383.171 115.689C383.641 115.686 384.114 115.639 384.578 115.535C385.041 115.432 385.494 115.299 385.866 114.988C386.481 114.481 386.488 113.63 385.889 113.106C385.683 112.926 385.44 112.816 385.186 112.723C384.611 112.512 384.013 112.432 383.401 112.412C381.876 112.359 380.352 112.399 378.827 112.389C378.708 112.389 378.583 112.362 378.455 112.459V115.632Z" fill="white" fill-opacity="0.2"/>
<path d="M435.055 120.717H433.5C432.952 119.916 432.405 119.109 431.86 118.315C431.718 118.248 431.583 118.275 431.448 118.275C429.149 118.275 426.853 118.278 424.554 118.268C424.267 118.268 424.088 118.345 423.929 118.592C423.516 119.232 423.07 119.853 422.654 120.49C422.536 120.671 422.407 120.744 422.194 120.734C421.806 120.717 421.42 120.731 420.994 120.731C421.052 120.53 421.16 120.41 421.248 120.283C423.158 117.521 425.075 114.761 426.975 111.992C427.191 111.678 427.414 111.528 427.8 111.578C428.104 111.618 428.452 111.491 428.719 111.628C428.987 111.765 429.102 112.095 429.277 112.349C431.1 114.978 432.919 117.607 434.741 120.237C434.839 120.377 434.93 120.52 435.062 120.721L435.055 120.717ZM431.286 117.461C430.17 115.816 429.102 114.234 427.996 112.602C426.894 114.231 425.815 115.826 424.706 117.461H431.282H431.286Z" fill="white"/>
<path d="M435.055 120.717H433.5C432.952 119.916 432.405 119.109 431.86 118.315C431.718 118.248 431.583 118.275 431.448 118.275C429.149 118.275 426.853 118.278 424.554 118.268C424.267 118.268 424.088 118.345 423.929 118.592C423.516 119.232 423.07 119.853 422.654 120.49C422.536 120.671 422.407 120.744 422.194 120.734C421.806 120.717 421.42 120.731 420.994 120.731C421.052 120.53 421.16 120.41 421.248 120.283C423.158 117.521 425.075 114.761 426.975 111.992C427.191 111.678 427.414 111.528 427.8 111.578C428.104 111.618 428.452 111.491 428.719 111.628C428.987 111.765 429.102 112.095 429.277 112.349C431.1 114.978 432.919 117.607 434.741 120.237C434.839 120.377 434.93 120.52 435.062 120.721L435.055 120.717ZM431.286 117.461C430.17 115.816 429.102 114.234 427.996 112.602C426.894 114.231 425.815 115.826 424.706 117.461H431.282H431.286Z" fill="white" fill-opacity="0.2"/>
<path d="M461.558 120.713H460.043C459.914 120.53 459.769 120.323 459.627 120.116C459.265 119.586 458.907 119.052 458.549 118.518C458.457 118.381 458.369 118.274 458.17 118.274C455.698 118.284 453.224 118.284 450.752 118.291C450.739 118.291 450.725 118.298 450.685 118.311C450.208 119.012 449.711 119.722 449.238 120.45C449.096 120.667 448.94 120.753 448.68 120.74C448.318 120.717 447.949 120.733 447.591 120.733C447.527 120.593 447.635 120.527 447.689 120.446C449.667 117.583 451.648 114.724 453.619 111.858C453.754 111.657 453.907 111.567 454.15 111.584C454.42 111.601 454.691 111.601 454.961 111.584C455.205 111.567 455.35 111.664 455.489 111.864C456.801 113.773 458.119 115.675 459.438 117.577C460.07 118.491 460.702 119.402 461.334 120.316C461.416 120.433 461.514 120.543 461.558 120.713ZM457.835 117.463C456.719 115.818 455.644 114.233 454.546 112.608C453.437 114.247 452.362 115.832 451.259 117.463H457.839H457.835Z" fill="white"/>
<path d="M461.558 120.713H460.043C459.914 120.53 459.769 120.323 459.627 120.116C459.265 119.586 458.907 119.052 458.549 118.518C458.457 118.381 458.369 118.274 458.17 118.274C455.698 118.284 453.224 118.284 450.752 118.291C450.739 118.291 450.725 118.298 450.685 118.311C450.208 119.012 449.711 119.722 449.238 120.45C449.096 120.667 448.94 120.753 448.68 120.74C448.318 120.717 447.949 120.733 447.591 120.733C447.527 120.593 447.635 120.527 447.689 120.446C449.667 117.583 451.648 114.724 453.619 111.858C453.754 111.657 453.907 111.567 454.15 111.584C454.42 111.601 454.691 111.601 454.961 111.584C455.205 111.567 455.35 111.664 455.489 111.864C456.801 113.773 458.119 115.675 459.438 117.577C460.07 118.491 460.702 119.402 461.334 120.316C461.416 120.433 461.514 120.543 461.558 120.713ZM457.835 117.463C456.719 115.818 455.644 114.233 454.546 112.608C453.437 114.247 452.362 115.832 451.259 117.463H457.839H457.835Z" fill="white" fill-opacity="0.2"/>
<path d="M419.472 118.842C419.783 119.045 420.087 119.215 420.371 119.449C420.256 119.619 420.08 119.696 419.925 119.786C418.988 120.327 417.957 120.59 416.892 120.72C415.323 120.914 413.761 120.85 412.233 120.42C411.019 120.08 409.931 119.522 409.052 118.595C407.706 117.17 407.723 114.881 409.322 113.439C410.323 112.539 411.513 112.038 412.811 111.768C414.914 111.327 416.997 111.397 419.039 112.105C419.333 112.208 419.61 112.342 419.881 112.495C420.043 112.589 420.199 112.692 420.395 112.815C420.111 113.092 419.779 113.239 419.489 113.47C418.772 113.012 418.004 112.699 417.169 112.552C415.286 112.222 413.454 112.332 411.716 113.176C411.104 113.473 410.57 113.88 410.147 114.417C409.265 115.545 409.343 117.067 410.326 118.114C411.097 118.938 412.068 119.416 413.146 119.676C414.684 120.046 416.223 120.036 417.754 119.626C418.37 119.459 418.937 119.182 419.465 118.838L419.472 118.842Z" fill="white"/>
<path d="M419.472 118.842C419.783 119.045 420.087 119.215 420.371 119.449C420.256 119.619 420.08 119.696 419.925 119.786C418.988 120.327 417.957 120.59 416.892 120.72C415.323 120.914 413.761 120.85 412.233 120.42C411.019 120.08 409.931 119.522 409.052 118.595C407.706 117.17 407.723 114.881 409.322 113.439C410.323 112.539 411.513 112.038 412.811 111.768C414.914 111.327 416.997 111.397 419.039 112.105C419.333 112.208 419.61 112.342 419.881 112.495C420.043 112.589 420.199 112.692 420.395 112.815C420.111 113.092 419.779 113.239 419.489 113.47C418.772 113.012 418.004 112.699 417.169 112.552C415.286 112.222 413.454 112.332 411.716 113.176C411.104 113.473 410.57 113.88 410.147 114.417C409.265 115.545 409.343 117.067 410.326 118.114C411.097 118.938 412.068 119.416 413.146 119.676C414.684 120.046 416.223 120.036 417.754 119.626C418.37 119.459 418.937 119.182 419.465 118.838L419.472 118.842Z" fill="white" fill-opacity="0.2"/>
<path d="M441.317 119.51C441.676 118.98 442.014 118.486 442.345 117.989C443.708 115.957 445.077 113.928 446.429 111.889C446.582 111.659 446.751 111.562 447.024 111.585C447.369 111.615 447.721 111.552 448.066 111.622C448.059 111.782 447.958 111.879 447.887 111.989C446.01 114.789 444.127 117.585 442.264 120.391C442.085 120.661 441.889 120.768 441.574 120.742C441.334 120.718 441.088 120.728 440.844 120.742C440.651 120.752 440.52 120.695 440.408 120.528C438.461 117.615 436.51 114.705 434.562 111.792C434.535 111.749 434.515 111.699 434.468 111.599C434.988 111.599 435.465 111.595 435.945 111.599C436.087 111.599 436.135 111.732 436.199 111.832C437.511 113.801 438.822 115.773 440.134 117.742C440.52 118.319 440.905 118.896 441.317 119.514V119.51Z" fill="white"/>
<path d="M441.317 119.51C441.676 118.98 442.014 118.486 442.345 117.989C443.708 115.957 445.077 113.928 446.429 111.889C446.582 111.659 446.751 111.562 447.024 111.585C447.369 111.615 447.721 111.552 448.066 111.622C448.059 111.782 447.958 111.879 447.887 111.989C446.01 114.789 444.127 117.585 442.264 120.391C442.085 120.661 441.889 120.768 441.574 120.742C441.334 120.718 441.088 120.728 440.844 120.742C440.651 120.752 440.52 120.695 440.408 120.528C438.461 117.615 436.51 114.705 434.562 111.792C434.535 111.749 434.515 111.699 434.468 111.599C434.988 111.599 435.465 111.595 435.945 111.599C436.087 111.599 436.135 111.732 436.199 111.832C437.511 113.801 438.822 115.773 440.134 117.742C440.52 118.319 440.905 118.896 441.317 119.514V119.51Z" fill="white" fill-opacity="0.2"/>
<path d="M389.345 111.592C389.906 111.592 390.373 111.585 390.843 111.595C391.009 111.598 391.083 111.752 391.181 111.859C392.53 113.313 393.876 114.768 395.225 116.226C395.36 116.373 395.502 116.517 395.661 116.687C396.195 116.113 396.712 115.559 397.229 114.998C398.203 113.947 399.18 112.896 400.147 111.835C400.316 111.648 400.492 111.565 400.746 111.585C401.08 111.612 401.418 111.562 401.77 111.618C401.733 111.832 401.564 111.935 401.442 112.065C399.833 113.811 398.227 115.552 396.607 117.287C396.408 117.501 396.334 117.715 396.34 117.998C396.354 118.889 396.347 119.783 396.347 120.721C395.864 120.748 395.4 120.744 394.92 120.721C394.866 120.524 394.89 120.337 394.89 120.154C394.886 119.406 394.88 118.662 394.893 117.915C394.897 117.685 394.829 117.518 394.674 117.348C393.02 115.572 391.377 113.787 389.731 112.009C389.626 111.895 389.521 111.778 389.352 111.595L389.345 111.592Z" fill="white"/>
<path d="M389.345 111.592C389.906 111.592 390.373 111.585 390.843 111.595C391.009 111.598 391.083 111.752 391.181 111.859C392.53 113.313 393.876 114.768 395.225 116.226C395.36 116.373 395.502 116.517 395.661 116.687C396.195 116.113 396.712 115.559 397.229 114.998C398.203 113.947 399.18 112.896 400.147 111.835C400.316 111.648 400.492 111.565 400.746 111.585C401.08 111.612 401.418 111.562 401.77 111.618C401.733 111.832 401.564 111.935 401.442 112.065C399.833 113.811 398.227 115.552 396.607 117.287C396.408 117.501 396.334 117.715 396.34 117.998C396.354 118.889 396.347 119.783 396.347 120.721C395.864 120.748 395.4 120.744 394.92 120.721C394.866 120.524 394.89 120.337 394.89 120.154C394.886 119.406 394.88 118.662 394.893 117.915C394.897 117.685 394.829 117.518 394.674 117.348C393.02 115.572 391.377 113.787 389.731 112.009C389.626 111.895 389.521 111.778 389.352 111.595L389.345 111.592Z" fill="white" fill-opacity="0.2"/>
<path d="M475.545 111.609H476.995C477.016 112.147 477.002 112.687 477.005 113.228C477.005 113.775 477.005 114.322 477.005 114.866V119.868H484.731C484.761 120.175 484.754 120.432 484.734 120.709H475.542V111.609H475.545Z" fill="white"/>
<path d="M475.545 111.609H476.995C477.016 112.147 477.002 112.687 477.005 113.228C477.005 113.775 477.005 114.322 477.005 114.866V119.868H484.731C484.761 120.175 484.754 120.432 484.734 120.709H475.542V111.609H475.545Z" fill="white" fill-opacity="0.2"/>
<path d="M465.345 119.886H473.063C473.134 120.169 473.117 120.42 473.08 120.7H463.918V111.614C464.391 111.56 464.844 111.59 465.345 111.59V119.886Z" fill="white"/>
<path d="M465.345 119.886H473.063C473.134 120.169 473.117 120.42 473.08 120.7H463.918V111.614C464.391 111.56 464.844 111.59 465.345 111.59V119.886Z" fill="white" fill-opacity="0.2"/>
<path d="M488.611 120.71C488.152 120.71 487.699 120.71 487.245 120.71C487.154 120.437 487.131 112.125 487.222 111.611C487.671 111.561 488.125 111.591 488.611 111.591V120.707V120.71Z" fill="white"/>
<path d="M488.611 120.71C488.152 120.71 487.699 120.71 487.245 120.71C487.154 120.437 487.131 112.125 487.222 111.611C487.671 111.561 488.125 111.591 488.611 111.591V120.707V120.71Z" fill="white" fill-opacity="0.2"/>
</g>
<g clip-path="url(#clip1_1490_2381)">
<path d="M108.208 18.332H114.118C114.502 19.1362 114.882 19.9403 115.262 20.7478C115.532 21.3151 115.784 21.889 116.067 22.4463C116.184 22.6832 116.181 22.8867 116.09 23.127C115.609 24.3983 115.141 25.6763 114.677 26.9509C114.63 27.081 114.535 27.2078 114.569 27.3647C114.727 27.3914 114.791 27.2712 114.872 27.1945C118.14 24.2548 121.553 21.4819 124.915 18.6524C125.198 18.4154 125.474 18.3053 125.851 18.3087C127.466 18.3287 129.082 18.3187 130.694 18.3187C130.842 18.3187 130.987 18.3187 131.209 18.3187C129.459 22.7866 127.722 27.2145 125.985 31.6391C126.241 31.5657 126.379 31.3888 126.534 31.232C127.89 29.8806 129.24 28.5225 130.6 27.1711C132.868 24.9121 135.14 22.6565 137.412 20.3975C138.038 19.7735 138.66 19.1462 139.283 18.5189C139.398 18.4021 139.505 18.312 139.694 18.312C141.74 18.3187 143.783 18.3187 145.829 18.3187C145.88 18.3187 145.93 18.3354 146.008 18.3454C147.068 23.0636 148.128 27.7784 149.195 32.5233H145.9C145.651 31.2987 145.399 30.0641 145.149 28.8395C145.001 28.7728 144.863 28.7995 144.732 28.7995C141.905 28.7995 139.081 28.7995 136.254 28.7928C135.971 28.7928 135.786 28.8762 135.594 29.0764C134.581 30.1442 133.548 31.1953 132.532 32.263C132.33 32.4733 132.124 32.5567 131.831 32.5567C127.823 32.5467 123.811 32.55 119.803 32.55H119.321C119.988 30.8449 120.624 29.1899 121.28 27.5382C121.94 25.8865 122.536 24.2081 123.273 22.5931C120.143 25.4193 116.854 28.0454 113.664 30.7815C113.415 30.9951 113.172 31.0885 112.815 30.9917C112.243 29.6036 111.644 28.1955 111.079 26.7741C110.513 25.3526 109.803 23.9879 109.436 22.5063C108.191 25.8464 106.838 29.1565 105.546 32.5033H95.9938C95.7549 31.2854 95.5193 30.0641 95.2837 28.8662C95.1221 28.7995 95.0009 28.8195 94.8798 28.8195C92.1469 28.8195 89.4173 28.8195 86.6844 28.8128C86.4185 28.8128 86.2334 28.8962 86.055 29.0831C85.0318 30.1442 83.9952 31.1886 82.972 32.2497C82.7802 32.4466 82.585 32.5367 82.3056 32.5333C81.4036 32.5166 80.5016 32.53 79.5996 32.5266C79.4717 32.5266 79.3337 32.57 79.1924 32.4566C79.2934 32.3465 79.391 32.2397 79.4919 32.1396C81.0873 30.5513 82.6826 28.9663 84.2779 27.378C87.2094 24.455 90.1409 21.532 93.0623 18.6023C93.2575 18.4088 93.446 18.3187 93.7254 18.322C95.6101 18.3354 97.4949 18.3287 99.3763 18.3287C99.5076 18.3287 99.6456 18.3053 99.8139 18.3721C100.82 22.83 101.833 27.3079 102.846 31.7859C102.87 31.7892 102.893 31.7959 102.917 31.7992C104.677 27.3179 106.434 22.8367 108.201 18.3354L108.208 18.332ZM144.759 26.8274C144.352 24.812 143.958 22.87 143.551 20.8546C141.595 22.8834 139.711 24.8421 137.799 26.8274H144.759ZM94.8865 26.8508C94.5466 24.9288 94.2134 23.0602 93.8667 21.1182C91.9718 23.0469 90.1275 24.9288 88.2393 26.8508H94.8831H94.8865Z" fill="white"/>
<path d="M108.208 18.332H114.118C114.502 19.1362 114.882 19.9403 115.262 20.7478C115.532 21.3151 115.784 21.889 116.067 22.4463C116.184 22.6832 116.181 22.8867 116.09 23.127C115.609 24.3983 115.141 25.6763 114.677 26.9509C114.63 27.081 114.535 27.2078 114.569 27.3647C114.727 27.3914 114.791 27.2712 114.872 27.1945C118.14 24.2548 121.553 21.4819 124.915 18.6524C125.198 18.4154 125.474 18.3053 125.851 18.3087C127.466 18.3287 129.082 18.3187 130.694 18.3187C130.842 18.3187 130.987 18.3187 131.209 18.3187C129.459 22.7866 127.722 27.2145 125.985 31.6391C126.241 31.5657 126.379 31.3888 126.534 31.232C127.89 29.8806 129.24 28.5225 130.6 27.1711C132.868 24.9121 135.14 22.6565 137.412 20.3975C138.038 19.7735 138.66 19.1462 139.283 18.5189C139.398 18.4021 139.505 18.312 139.694 18.312C141.74 18.3187 143.783 18.3187 145.829 18.3187C145.88 18.3187 145.93 18.3354 146.008 18.3454C147.068 23.0636 148.128 27.7784 149.195 32.5233H145.9C145.651 31.2987 145.399 30.0641 145.149 28.8395C145.001 28.7728 144.863 28.7995 144.732 28.7995C141.905 28.7995 139.081 28.7995 136.254 28.7928C135.971 28.7928 135.786 28.8762 135.594 29.0764C134.581 30.1442 133.548 31.1953 132.532 32.263C132.33 32.4733 132.124 32.5567 131.831 32.5567C127.823 32.5467 123.811 32.55 119.803 32.55H119.321C119.988 30.8449 120.624 29.1899 121.28 27.5382C121.94 25.8865 122.536 24.2081 123.273 22.5931C120.143 25.4193 116.854 28.0454 113.664 30.7815C113.415 30.9951 113.172 31.0885 112.815 30.9917C112.243 29.6036 111.644 28.1955 111.079 26.7741C110.513 25.3526 109.803 23.9879 109.436 22.5063C108.191 25.8464 106.838 29.1565 105.546 32.5033H95.9938C95.7549 31.2854 95.5193 30.0641 95.2837 28.8662C95.1221 28.7995 95.0009 28.8195 94.8798 28.8195C92.1469 28.8195 89.4173 28.8195 86.6844 28.8128C86.4185 28.8128 86.2334 28.8962 86.055 29.0831C85.0318 30.1442 83.9952 31.1886 82.972 32.2497C82.7802 32.4466 82.585 32.5367 82.3056 32.5333C81.4036 32.5166 80.5016 32.53 79.5996 32.5266C79.4717 32.5266 79.3337 32.57 79.1924 32.4566C79.2934 32.3465 79.391 32.2397 79.4919 32.1396C81.0873 30.5513 82.6826 28.9663 84.2779 27.378C87.2094 24.455 90.1409 21.532 93.0623 18.6023C93.2575 18.4088 93.446 18.3187 93.7254 18.322C95.6101 18.3354 97.4949 18.3287 99.3763 18.3287C99.5076 18.3287 99.6456 18.3053 99.8139 18.3721C100.82 22.83 101.833 27.3079 102.846 31.7859C102.87 31.7892 102.893 31.7959 102.917 31.7992C104.677 27.3179 106.434 22.8367 108.201 18.3354L108.208 18.332ZM144.759 26.8274C144.352 24.812 143.958 22.87 143.551 20.8546C141.595 22.8834 139.711 24.8421 137.799 26.8274H144.759ZM94.8865 26.8508C94.5466 24.9288 94.2134 23.0602 93.8667 21.1182C91.9718 23.0469 90.1275 24.9288 88.2393 26.8508H94.8831H94.8865Z" fill="white" fill-opacity="0.2"/>
<path d="M62.1282 32.4621C63.1985 29.746 64.262 27.0465 65.3289 24.3404H68.2234C67.4695 26.2524 66.7291 28.141 65.992 30.0062C66.0425 30.0896 66.0997 30.083 66.1502 30.083C67.7623 30.0663 69.3778 30.133 70.99 30.0062C71.9055 29.9328 72.794 29.756 73.6455 29.3856C74.3321 29.0853 74.9076 28.6515 75.2913 28.0209C76.1428 26.6194 76.8261 25.1412 77.0415 23.5062C77.2165 22.1948 76.5804 21.2672 75.4495 20.8601C74.874 20.6533 74.2783 20.5598 73.6691 20.5598C71.5554 20.5598 69.4451 20.5598 67.3315 20.5598C67.1834 20.5598 67.0387 20.5598 66.8233 20.5598C67.1161 19.8024 67.3955 19.0783 67.6714 18.3742C67.8195 18.2908 67.9542 18.3242 68.0888 18.3209C71.3434 18.3209 74.6014 18.3108 77.856 18.3209C78.9902 18.3242 80.1076 18.4777 81.1779 18.8781C82.3525 19.3152 83.2612 20.0393 83.6752 21.2572C83.9579 22.0881 83.9344 22.9389 83.7459 23.7832C83.2983 25.7986 82.3121 27.527 80.9019 29.0319C79.7273 30.2865 78.3305 31.2141 76.7083 31.7814C75.7558 32.1151 74.7595 32.2786 73.7566 32.3954C72.7401 32.5155 71.7237 32.5322 70.7005 32.5255C68.0248 32.5021 65.3458 32.5188 62.6667 32.5155C62.5085 32.5155 62.3436 32.5455 62.1282 32.4554V32.4621Z" fill="white"/>
<path d="M62.1282 32.4621C63.1985 29.746 64.262 27.0465 65.3289 24.3404H68.2234C67.4695 26.2524 66.7291 28.141 65.992 30.0062C66.0425 30.0896 66.0997 30.083 66.1502 30.083C67.7623 30.0663 69.3778 30.133 70.99 30.0062C71.9055 29.9328 72.794 29.756 73.6455 29.3856C74.3321 29.0853 74.9076 28.6515 75.2913 28.0209C76.1428 26.6194 76.8261 25.1412 77.0415 23.5062C77.2165 22.1948 76.5804 21.2672 75.4495 20.8601C74.874 20.6533 74.2783 20.5598 73.6691 20.5598C71.5554 20.5598 69.4451 20.5598 67.3315 20.5598C67.1834 20.5598 67.0387 20.5598 66.8233 20.5598C67.1161 19.8024 67.3955 19.0783 67.6714 18.3742C67.8195 18.2908 67.9542 18.3242 68.0888 18.3209C71.3434 18.3209 74.6014 18.3108 77.856 18.3209C78.9902 18.3242 80.1076 18.4777 81.1779 18.8781C82.3525 19.3152 83.2612 20.0393 83.6752 21.2572C83.9579 22.0881 83.9344 22.9389 83.7459 23.7832C83.2983 25.7986 82.3121 27.527 80.9019 29.0319C79.7273 30.2865 78.3305 31.2141 76.7083 31.7814C75.7558 32.1151 74.7595 32.2786 73.7566 32.3954C72.7401 32.5155 71.7237 32.5322 70.7005 32.5255C68.0248 32.5021 65.3458 32.5188 62.6667 32.5155C62.5085 32.5155 62.3436 32.5455 62.1282 32.4554V32.4621Z" fill="white" fill-opacity="0.2"/>
<path d="M171.37 18.4052C170.856 19.8701 170.25 21.2815 169.711 22.7097H166.817C167.096 21.9789 167.369 21.2749 167.635 20.5808C167.53 20.454 167.416 20.5007 167.318 20.4974C166.12 20.494 164.922 20.464 163.727 20.5007C160.755 20.5942 158.594 21.9756 157.278 24.6183C156.78 25.616 156.434 26.6637 156.457 27.8016C156.474 28.6525 156.834 29.2764 157.639 29.6335C158.362 29.9571 159.126 30.0873 159.904 30.164C161.364 30.3108 162.832 30.2241 164.299 30.2441C165.053 30.2541 165.804 30.2441 166.628 30.2441C166.332 31.0182 166.053 31.7557 165.787 32.463C165.608 32.5531 165.457 32.5231 165.312 32.5231C162.529 32.5231 159.742 32.5365 156.959 32.5198C155.521 32.5098 154.081 32.4597 152.681 32.0827C151.116 31.6622 150.086 30.7046 149.776 29.1029C149.558 27.9684 149.692 26.8473 150.083 25.7561C150.833 23.6707 152.051 21.9122 153.886 20.6208C155.397 19.5531 157.093 18.9057 158.914 18.5621C159.816 18.3919 160.725 18.3318 161.64 18.3318C164.706 18.3352 167.776 18.3318 170.842 18.3318C170.987 18.3318 171.138 18.3051 171.377 18.3952L171.37 18.4052Z" fill="white"/>
<path d="M171.37 18.4052C170.856 19.8701 170.25 21.2815 169.711 22.7097H166.817C167.096 21.9789 167.369 21.2749 167.635 20.5808C167.53 20.454 167.416 20.5007 167.318 20.4974C166.12 20.494 164.922 20.464 163.727 20.5007C160.755 20.5942 158.594 21.9756 157.278 24.6183C156.78 25.616 156.434 26.6637 156.457 27.8016C156.474 28.6525 156.834 29.2764 157.639 29.6335C158.362 29.9571 159.126 30.0873 159.904 30.164C161.364 30.3108 162.832 30.2241 164.299 30.2441C165.053 30.2541 165.804 30.2441 166.628 30.2441C166.332 31.0182 166.053 31.7557 165.787 32.463C165.608 32.5531 165.457 32.5231 165.312 32.5231C162.529 32.5231 159.742 32.5365 156.959 32.5198C155.521 32.5098 154.081 32.4597 152.681 32.0827C151.116 31.6622 150.086 30.7046 149.776 29.1029C149.558 27.9684 149.692 26.8473 150.083 25.7561C150.833 23.6707 152.051 21.9122 153.886 20.6208C155.397 19.5531 157.093 18.9057 158.914 18.5621C159.816 18.3919 160.725 18.3318 161.64 18.3318C164.706 18.3352 167.776 18.3318 170.842 18.3318C170.987 18.3318 171.138 18.3051 171.377 18.3952L171.37 18.4052Z" fill="white" fill-opacity="0.2"/>
<path d="M69.9961 115.98C70.3024 116.06 70.5481 116.114 70.7904 116.187C71.2818 116.337 71.7463 116.541 72.1266 116.898C72.9579 117.675 72.9242 118.957 72.0424 119.681C71.376 120.228 70.575 120.442 69.7437 120.568C69.0403 120.678 68.3301 120.722 67.6132 120.719C65.6376 120.715 63.6585 120.719 61.6829 120.719H61.2521C61.1679 120.398 61.1377 112.4 61.2117 111.632C61.3228 111.532 61.4608 111.576 61.5887 111.576C63.5912 111.576 65.5972 111.566 67.5997 111.576C68.4479 111.579 69.2893 111.673 70.1038 111.936C70.6187 112.103 71.1034 112.323 71.4905 112.717C72.1569 113.398 72.1602 114.442 71.5039 115.133C71.1034 115.553 70.5918 115.777 69.9961 115.977V115.98ZM62.6724 119.921C63.1638 119.921 63.6081 119.924 64.049 119.921C65.5803 119.901 67.1151 119.978 68.6465 119.854C69.2927 119.801 69.9288 119.704 70.5043 119.384C70.9721 119.124 71.238 118.736 71.2347 118.186C71.2313 117.632 70.9486 117.258 70.474 117.008C70.2485 116.888 70.0096 116.801 69.7605 116.738C69.1076 116.568 68.4378 116.501 67.7647 116.497C66.203 116.497 64.6447 116.497 63.083 116.497C62.9517 116.497 62.8171 116.467 62.669 116.544V119.924L62.6724 119.921ZM62.6724 115.617C62.7734 115.693 62.8575 115.677 62.9349 115.677C64.4125 115.677 65.89 115.683 67.3675 115.673C67.8353 115.67 68.3065 115.623 68.7676 115.52C69.2287 115.416 69.6797 115.283 70.05 114.973C70.6625 114.465 70.6692 113.615 70.0735 113.091C69.8682 112.91 69.6259 112.8 69.3735 112.707C68.8013 112.497 68.2056 112.417 67.5964 112.397C66.0785 112.343 64.5605 112.383 63.0426 112.373C62.9248 112.373 62.8003 112.347 62.6724 112.443V115.617Z" fill="white"/>
<path d="M69.9961 115.98C70.3024 116.06 70.5481 116.114 70.7904 116.187C71.2818 116.337 71.7463 116.541 72.1266 116.898C72.9579 117.675 72.9242 118.957 72.0424 119.681C71.376 120.228 70.575 120.442 69.7437 120.568C69.0403 120.678 68.3301 120.722 67.6132 120.719C65.6376 120.715 63.6585 120.719 61.6829 120.719H61.2521C61.1679 120.398 61.1377 112.4 61.2117 111.632C61.3228 111.532 61.4608 111.576 61.5887 111.576C63.5912 111.576 65.5972 111.566 67.5997 111.576C68.4479 111.579 69.2893 111.673 70.1038 111.936C70.6187 112.103 71.1034 112.323 71.4905 112.717C72.1569 113.398 72.1602 114.442 71.5039 115.133C71.1034 115.553 70.5918 115.777 69.9961 115.977V115.98ZM62.6724 119.921C63.1638 119.921 63.6081 119.924 64.049 119.921C65.5803 119.901 67.1151 119.978 68.6465 119.854C69.2927 119.801 69.9288 119.704 70.5043 119.384C70.9721 119.124 71.238 118.736 71.2347 118.186C71.2313 117.632 70.9486 117.258 70.474 117.008C70.2485 116.888 70.0096 116.801 69.7605 116.738C69.1076 116.568 68.4378 116.501 67.7647 116.497C66.203 116.497 64.6447 116.497 63.083 116.497C62.9517 116.497 62.8171 116.467 62.669 116.544V119.924L62.6724 119.921ZM62.6724 115.617C62.7734 115.693 62.8575 115.677 62.9349 115.677C64.4125 115.677 65.89 115.683 67.3675 115.673C67.8353 115.67 68.3065 115.623 68.7676 115.52C69.2287 115.416 69.6797 115.283 70.05 114.973C70.6625 114.465 70.6692 113.615 70.0735 113.091C69.8682 112.91 69.6259 112.8 69.3735 112.707C68.8013 112.497 68.2056 112.417 67.5964 112.397C66.0785 112.343 64.5605 112.383 63.0426 112.373C62.9248 112.373 62.8003 112.347 62.6724 112.443V115.617Z" fill="white" fill-opacity="0.2"/>
<path d="M119.017 120.713H117.468C116.923 119.913 116.378 119.105 115.836 118.311C115.695 118.244 115.56 118.271 115.425 118.271C113.137 118.271 110.852 118.274 108.563 118.264C108.277 118.264 108.098 118.341 107.94 118.588C107.53 119.228 107.085 119.849 106.671 120.486C106.554 120.667 106.426 120.74 106.214 120.73C105.827 120.713 105.443 120.727 105.019 120.727C105.076 120.526 105.184 120.406 105.271 120.28C107.173 117.517 109.081 114.757 110.973 111.988C111.188 111.674 111.41 111.524 111.794 111.574C112.097 111.614 112.443 111.487 112.709 111.624C112.975 111.761 113.09 112.091 113.265 112.345C115.079 114.974 116.89 117.603 118.704 120.233C118.801 120.373 118.892 120.516 119.023 120.717L119.017 120.713ZM115.264 117.457C114.153 115.812 113.09 114.23 111.989 112.598C110.892 114.227 109.818 115.822 108.714 117.457H115.261H115.264Z" fill="white"/>
<path d="M119.017 120.713H117.468C116.923 119.913 116.378 119.105 115.836 118.311C115.695 118.244 115.56 118.271 115.425 118.271C113.137 118.271 110.852 118.274 108.563 118.264C108.277 118.264 108.098 118.341 107.94 118.588C107.53 119.228 107.085 119.849 106.671 120.486C106.554 120.667 106.426 120.74 106.214 120.73C105.827 120.713 105.443 120.727 105.019 120.727C105.076 120.526 105.184 120.406 105.271 120.28C107.173 117.517 109.081 114.757 110.973 111.988C111.188 111.674 111.41 111.524 111.794 111.574C112.097 111.614 112.443 111.487 112.709 111.624C112.975 111.761 113.09 112.091 113.265 112.345C115.079 114.974 116.89 117.603 118.704 120.233C118.801 120.373 118.892 120.516 119.023 120.717L119.017 120.713ZM115.264 117.457C114.153 115.812 113.09 114.23 111.989 112.598C110.892 114.227 109.818 115.822 108.714 117.457H115.261H115.264Z" fill="white" fill-opacity="0.2"/>
<path d="M145.399 120.706H143.892C143.764 120.522 143.619 120.315 143.478 120.108C143.117 119.578 142.761 119.044 142.404 118.51C142.313 118.373 142.226 118.266 142.027 118.266C139.567 118.276 137.103 118.276 134.643 118.283C134.629 118.283 134.616 118.29 134.575 118.303C134.101 119.004 133.606 119.715 133.135 120.442C132.993 120.659 132.839 120.746 132.58 120.732C132.219 120.709 131.853 120.726 131.496 120.726C131.432 120.585 131.54 120.519 131.593 120.439C133.562 117.576 135.535 114.716 137.497 111.85C137.631 111.65 137.783 111.559 138.025 111.576C138.294 111.593 138.564 111.593 138.833 111.576C139.075 111.559 139.22 111.656 139.358 111.856C140.664 113.765 141.976 115.667 143.289 117.569C143.918 118.483 144.548 119.394 145.177 120.308C145.258 120.425 145.356 120.535 145.399 120.706ZM141.694 117.456C140.583 115.811 139.513 114.226 138.419 112.601C137.315 114.239 136.245 115.824 135.148 117.456H141.697H141.694Z" fill="white"/>
<path d="M145.399 120.706H143.892C143.764 120.522 143.619 120.315 143.478 120.108C143.117 119.578 142.761 119.044 142.404 118.51C142.313 118.373 142.226 118.266 142.027 118.266C139.567 118.276 137.103 118.276 134.643 118.283C134.629 118.283 134.616 118.29 134.575 118.303C134.101 119.004 133.606 119.715 133.135 120.442C132.993 120.659 132.839 120.746 132.58 120.732C132.219 120.709 131.853 120.726 131.496 120.726C131.432 120.585 131.54 120.519 131.593 120.439C133.562 117.576 135.535 114.716 137.497 111.85C137.631 111.65 137.783 111.559 138.025 111.576C138.294 111.593 138.564 111.593 138.833 111.576C139.075 111.559 139.22 111.656 139.358 111.856C140.664 113.765 141.976 115.667 143.289 117.569C143.918 118.483 144.548 119.394 145.177 120.308C145.258 120.425 145.356 120.535 145.399 120.706ZM141.694 117.456C140.583 115.811 139.513 114.226 138.419 112.601C137.315 114.239 136.245 115.824 135.148 117.456H141.697H141.694Z" fill="white" fill-opacity="0.2"/>
<path d="M103.505 118.826C103.815 119.03 104.118 119.2 104.4 119.433C104.286 119.604 104.111 119.68 103.956 119.77C103.024 120.311 101.997 120.575 100.937 120.705C99.3754 120.898 97.8205 120.835 96.2992 120.404C95.0909 120.064 94.0072 119.507 93.1321 118.579C91.7926 117.154 91.8094 114.865 93.4014 113.424C94.3976 112.523 95.5823 112.022 96.8747 111.752C98.9682 111.312 101.041 111.382 103.074 112.089C103.367 112.193 103.643 112.326 103.912 112.48C104.074 112.573 104.229 112.676 104.424 112.8C104.141 113.077 103.811 113.224 103.522 113.454C102.808 112.997 102.044 112.683 101.213 112.536C99.3384 112.206 97.5142 112.316 95.7842 113.16C95.1751 113.457 94.6433 113.864 94.2226 114.402C93.3441 115.529 93.4216 117.051 94.401 118.099C95.1683 118.923 96.1343 119.4 97.2079 119.66C98.7393 120.031 100.271 120.021 101.795 119.61C102.408 119.443 102.973 119.166 103.498 118.823L103.505 118.826Z" fill="white"/>
<path d="M103.505 118.826C103.815 119.03 104.118 119.2 104.4 119.433C104.286 119.604 104.111 119.68 103.956 119.77C103.024 120.311 101.997 120.575 100.937 120.705C99.3754 120.898 97.8205 120.835 96.2992 120.404C95.0909 120.064 94.0072 119.507 93.1321 118.579C91.7926 117.154 91.8094 114.865 93.4014 113.424C94.3976 112.523 95.5823 112.022 96.8747 111.752C98.9682 111.312 101.041 111.382 103.074 112.089C103.367 112.193 103.643 112.326 103.912 112.48C104.074 112.573 104.229 112.676 104.424 112.8C104.141 113.077 103.811 113.224 103.522 113.454C102.808 112.997 102.044 112.683 101.213 112.536C99.3384 112.206 97.5142 112.316 95.7842 113.16C95.1751 113.457 94.6433 113.864 94.2226 114.402C93.3441 115.529 93.4216 117.051 94.401 118.099C95.1683 118.923 96.1343 119.4 97.2079 119.66C98.7393 120.031 100.271 120.021 101.795 119.61C102.408 119.443 102.973 119.166 103.498 118.823L103.505 118.826Z" fill="white" fill-opacity="0.2"/>
<path d="M125.25 119.495C125.607 118.964 125.943 118.47 126.273 117.973C127.629 115.941 128.992 113.912 130.339 111.873C130.49 111.643 130.658 111.546 130.931 111.57C131.274 111.6 131.624 111.536 131.968 111.606C131.961 111.767 131.86 111.863 131.789 111.974C129.921 114.773 128.047 117.569 126.192 120.376C126.014 120.646 125.819 120.753 125.506 120.726C125.267 120.703 125.021 120.713 124.779 120.726C124.587 120.736 124.455 120.679 124.344 120.512C122.406 117.599 120.464 114.69 118.525 111.777C118.498 111.733 118.478 111.683 118.431 111.583C118.949 111.583 119.424 111.58 119.902 111.583C120.043 111.583 120.09 111.717 120.154 111.817C121.46 113.785 122.766 115.757 124.072 117.726C124.455 118.303 124.839 118.881 125.25 119.498V119.495Z" fill="white"/>
<path d="M125.25 119.495C125.607 118.964 125.943 118.47 126.273 117.973C127.629 115.941 128.992 113.912 130.339 111.873C130.49 111.643 130.658 111.546 130.931 111.57C131.274 111.6 131.624 111.536 131.968 111.606C131.961 111.767 131.86 111.863 131.789 111.974C129.921 114.773 128.047 117.569 126.192 120.376C126.014 120.646 125.819 120.753 125.506 120.726C125.267 120.703 125.021 120.713 124.779 120.726C124.587 120.736 124.455 120.679 124.344 120.512C122.406 117.599 120.464 114.69 118.525 111.777C118.498 111.733 118.478 111.683 118.431 111.583C118.949 111.583 119.424 111.58 119.902 111.583C120.043 111.583 120.09 111.717 120.154 111.817C121.46 113.785 122.766 115.757 124.072 117.726C124.455 118.303 124.839 118.881 125.25 119.498V119.495Z" fill="white" fill-opacity="0.2"/>
<path d="M73.5132 111.576C74.0719 111.576 74.5364 111.569 75.0042 111.579C75.1691 111.583 75.2431 111.736 75.3407 111.843C76.6836 113.298 78.0232 114.753 79.3661 116.211C79.5007 116.358 79.6421 116.501 79.8003 116.671C80.332 116.097 80.847 115.543 81.3619 114.983C82.3312 113.932 83.3039 112.881 84.2665 111.82C84.4348 111.633 84.6098 111.549 84.8622 111.569C85.1954 111.596 85.532 111.546 85.882 111.603C85.845 111.816 85.6767 111.92 85.5556 112.05C83.9535 113.795 82.3548 115.537 80.7426 117.272C80.5441 117.485 80.47 117.699 80.4768 117.983C80.4902 118.874 80.4835 119.768 80.4835 120.705C80.0022 120.732 79.5411 120.729 79.0632 120.705C79.0093 120.509 79.0329 120.322 79.0329 120.138C79.0295 119.391 79.0228 118.647 79.0363 117.899C79.0396 117.669 78.9723 117.502 78.8175 117.332C77.1717 115.557 75.536 113.772 73.8969 111.993C73.7925 111.88 73.6882 111.763 73.5199 111.579L73.5132 111.576Z" fill="white"/>
<path d="M73.5132 111.576C74.0719 111.576 74.5364 111.569 75.0042 111.579C75.1691 111.583 75.2431 111.736 75.3407 111.843C76.6836 113.298 78.0232 114.753 79.3661 116.211C79.5007 116.358 79.6421 116.501 79.8003 116.671C80.332 116.097 80.847 115.543 81.3619 114.983C82.3312 113.932 83.3039 112.881 84.2665 111.82C84.4348 111.633 84.6098 111.549 84.8622 111.569C85.1954 111.596 85.532 111.546 85.882 111.603C85.845 111.816 85.6767 111.92 85.5556 112.05C83.9535 113.795 82.3548 115.537 80.7426 117.272C80.5441 117.485 80.47 117.699 80.4768 117.983C80.4902 118.874 80.4835 119.768 80.4835 120.705C80.0022 120.732 79.5411 120.729 79.0632 120.705C79.0093 120.509 79.0329 120.322 79.0329 120.138C79.0295 119.391 79.0228 118.647 79.0363 117.899C79.0396 117.669 78.9723 117.502 78.8175 117.332C77.1717 115.557 75.536 113.772 73.8969 111.993C73.7925 111.88 73.6882 111.763 73.5199 111.579L73.5132 111.576Z" fill="white" fill-opacity="0.2"/>
<path d="M159.325 111.605H160.769C160.789 112.143 160.776 112.683 160.779 113.224C160.779 113.771 160.779 114.318 160.779 114.862V119.864H168.47C168.5 120.171 168.493 120.428 168.473 120.705H159.322V111.605H159.325Z" fill="white"/>
<path d="M159.325 111.605H160.769C160.789 112.143 160.776 112.683 160.779 113.224C160.779 113.771 160.779 114.318 160.779 114.862V119.864H168.47C168.5 120.171 168.493 120.428 168.473 120.705H159.322V111.605H159.325Z" fill="white" fill-opacity="0.2"/>
<path d="M149.171 119.878H156.855C156.925 120.161 156.908 120.412 156.871 120.692H147.75V111.606C148.222 111.553 148.673 111.583 149.171 111.583V119.878Z" fill="white"/>
<path d="M149.171 119.878H156.855C156.925 120.161 156.908 120.412 156.871 120.692H147.75V111.606C148.222 111.553 148.673 111.583 149.171 111.583V119.878Z" fill="white" fill-opacity="0.2"/>
<path d="M172.333 120.695C171.876 120.695 171.425 120.695 170.974 120.695C170.883 120.421 170.859 112.109 170.95 111.595C171.398 111.545 171.849 111.575 172.333 111.575V120.691V120.695Z" fill="white"/>
<path d="M172.333 120.695C171.876 120.695 171.425 120.695 170.974 120.695C170.883 120.421 170.859 112.109 170.95 111.595C171.398 111.545 171.849 111.575 172.333 111.575V120.691V120.695Z" fill="white" fill-opacity="0.2"/>
<path d="M0.000488281 98.7489V44.3929C0.138481 44.2961 0.289936 44.3395 0.43466 44.3395C2.68293 44.3395 4.92783 44.3429 7.1761 44.3362C9.85181 44.3262 12.5309 44.3195 15.2066 44.2795C16.7952 44.2561 18.3804 44.2428 19.969 44.2661C22.4697 44.2995 24.9738 44.2895 27.4711 44.4229C29.4568 44.5297 31.446 44.6565 33.4014 45.0436C35.2492 45.4106 37.0666 45.8945 38.8033 46.6152C41.0516 47.5495 42.9397 48.9843 44.4442 50.8929C45.1341 51.7705 45.4707 52.8216 45.8275 53.8493C46.4939 55.7746 46.6285 57.75 46.366 59.7654C46.2246 60.8532 46.0429 61.9243 45.5885 62.9353C44.6158 65.0876 42.97 66.5391 40.7992 67.4433C39.3923 68.0273 37.9148 68.3676 36.4406 68.7246C34.8823 69.1017 33.2903 69.2652 31.7017 69.4454C30.0055 69.6389 28.3058 69.8091 26.6095 69.9793C25.6469 70.076 24.681 70.1528 23.7184 70.2395C23.6241 70.2462 23.5333 70.2596 23.439 70.2863C23.8126 70.363 24.1896 70.3263 24.5632 70.3363C26.5119 70.3997 28.4606 70.4331 30.4093 70.5065C32.5061 70.5866 34.5996 70.6733 36.6863 70.8969C37.7667 71.0103 38.7764 71.3841 39.776 71.7711C41.4757 72.4285 43.0575 73.296 44.4677 74.4572C46.477 76.1089 47.6853 78.2478 48.345 80.7203C48.7758 82.3253 48.9979 83.9637 49.0451 85.6154C49.1056 87.6909 48.759 89.6762 47.4565 91.4013C46.3458 92.8729 45.0298 94.1041 43.3739 94.9617C41.23 96.0728 38.9615 96.8403 36.6291 97.4509C35.2391 97.8146 33.8356 98.1283 32.4052 98.2884C31.0825 98.4352 29.7497 98.4686 28.4202 98.512C25.7041 98.5988 22.988 98.6588 20.2719 98.6722C18.7405 98.6788 17.2058 98.7289 15.6744 98.7322C10.6158 98.7456 5.55385 98.7422 0.495242 98.7489C0.337055 98.7489 0.178869 98.7489 0.00385395 98.7489H0.000488281ZM19.2824 70.4898C19.5382 70.3263 19.7402 70.2696 19.9522 70.2696C20.3022 70.2696 20.6489 70.2162 20.9955 70.1761C23.1058 69.9225 25.2026 69.6089 27.2725 69.1251C29.1472 68.6846 30.9781 68.1174 32.6778 67.1897C34.6938 66.0919 36.2488 64.5604 37.2046 62.4649C38.285 60.0958 38.7461 57.6232 38.4802 55.0305C38.3355 53.6091 37.9653 52.2644 37.1306 51.0631C35.9324 49.3347 34.364 48.0233 32.5398 46.9956C31.0522 46.1581 29.4804 45.5741 27.7505 45.4473C25.482 45.2838 23.2135 45.2071 20.9417 45.2071C18.7506 45.2071 16.5562 45.167 14.3652 45.127C12.228 45.0903 10.0874 45.0603 7.9502 45.0336C7.80885 45.0336 7.65403 44.9869 7.52613 45.0936V97.878C7.69105 97.9581 7.8425 97.9281 7.98386 97.9247C10.2288 97.8847 12.4737 97.8246 14.7186 97.7979C17.2462 97.7679 19.7738 97.7412 22.3014 97.6411C25.243 97.5243 28.1846 97.3842 31.1161 97.1406C32.4254 97.0305 33.6437 96.6768 34.7679 95.9961C36.0031 95.2453 37.1407 94.3811 38.147 93.35C38.7764 92.706 39.362 92.0253 39.739 91.2011C40.5972 89.3225 41.0819 87.3538 41.1122 85.2884C41.1492 82.936 40.6073 80.717 39.5067 78.6349C38.8336 77.3635 38.0158 76.1857 36.8916 75.2647C34.576 73.3694 31.9508 72.1115 28.9789 71.6176C26.9898 71.2873 25.0007 70.977 23.0049 70.6867C22.0221 70.5432 21.0393 70.3797 20.0363 70.4898C19.8108 70.5165 19.582 70.4931 19.2791 70.4931L19.2824 70.4898Z" fill="white"/>
<path d="M0.000488281 98.7489V44.3929C0.138481 44.2961 0.289936 44.3395 0.43466 44.3395C2.68293 44.3395 4.92783 44.3429 7.1761 44.3362C9.85181 44.3262 12.5309 44.3195 15.2066 44.2795C16.7952 44.2561 18.3804 44.2428 19.969 44.2661C22.4697 44.2995 24.9738 44.2895 27.4711 44.4229C29.4568 44.5297 31.446 44.6565 33.4014 45.0436C35.2492 45.4106 37.0666 45.8945 38.8033 46.6152C41.0516 47.5495 42.9397 48.9843 44.4442 50.8929C45.1341 51.7705 45.4707 52.8216 45.8275 53.8493C46.4939 55.7746 46.6285 57.75 46.366 59.7654C46.2246 60.8532 46.0429 61.9243 45.5885 62.9353C44.6158 65.0876 42.97 66.5391 40.7992 67.4433C39.3923 68.0273 37.9148 68.3676 36.4406 68.7246C34.8823 69.1017 33.2903 69.2652 31.7017 69.4454C30.0055 69.6389 28.3058 69.8091 26.6095 69.9793C25.6469 70.076 24.681 70.1528 23.7184 70.2395C23.6241 70.2462 23.5333 70.2596 23.439 70.2863C23.8126 70.363 24.1896 70.3263 24.5632 70.3363C26.5119 70.3997 28.4606 70.4331 30.4093 70.5065C32.5061 70.5866 34.5996 70.6733 36.6863 70.8969C37.7667 71.0103 38.7764 71.3841 39.776 71.7711C41.4757 72.4285 43.0575 73.296 44.4677 74.4572C46.477 76.1089 47.6853 78.2478 48.345 80.7203C48.7758 82.3253 48.9979 83.9637 49.0451 85.6154C49.1056 87.6909 48.759 89.6762 47.4565 91.4013C46.3458 92.8729 45.0298 94.1041 43.3739 94.9617C41.23 96.0728 38.9615 96.8403 36.6291 97.4509C35.2391 97.8146 33.8356 98.1283 32.4052 98.2884C31.0825 98.4352 29.7497 98.4686 28.4202 98.512C25.7041 98.5988 22.988 98.6588 20.2719 98.6722C18.7405 98.6788 17.2058 98.7289 15.6744 98.7322C10.6158 98.7456 5.55385 98.7422 0.495242 98.7489C0.337055 98.7489 0.178869 98.7489 0.00385395 98.7489H0.000488281ZM19.2824 70.4898C19.5382 70.3263 19.7402 70.2696 19.9522 70.2696C20.3022 70.2696 20.6489 70.2162 20.9955 70.1761C23.1058 69.9225 25.2026 69.6089 27.2725 69.1251C29.1472 68.6846 30.9781 68.1174 32.6778 67.1897C34.6938 66.0919 36.2488 64.5604 37.2046 62.4649C38.285 60.0958 38.7461 57.6232 38.4802 55.0305C38.3355 53.6091 37.9653 52.2644 37.1306 51.0631C35.9324 49.3347 34.364 48.0233 32.5398 46.9956C31.0522 46.1581 29.4804 45.5741 27.7505 45.4473C25.482 45.2838 23.2135 45.2071 20.9417 45.2071C18.7506 45.2071 16.5562 45.167 14.3652 45.127C12.228 45.0903 10.0874 45.0603 7.9502 45.0336C7.80885 45.0336 7.65403 44.9869 7.52613 45.0936V97.878C7.69105 97.9581 7.8425 97.9281 7.98386 97.9247C10.2288 97.8847 12.4737 97.8246 14.7186 97.7979C17.2462 97.7679 19.7738 97.7412 22.3014 97.6411C25.243 97.5243 28.1846 97.3842 31.1161 97.1406C32.4254 97.0305 33.6437 96.6768 34.7679 95.9961C36.0031 95.2453 37.1407 94.3811 38.147 93.35C38.7764 92.706 39.362 92.0253 39.739 91.2011C40.5972 89.3225 41.0819 87.3538 41.1122 85.2884C41.1492 82.936 40.6073 80.717 39.5067 78.6349C38.8336 77.3635 38.0158 76.1857 36.8916 75.2647C34.576 73.3694 31.9508 72.1115 28.9789 71.6176C26.9898 71.2873 25.0007 70.977 23.0049 70.6867C22.0221 70.5432 21.0393 70.3797 20.0363 70.4898C19.8108 70.5165 19.582 70.4931 19.2791 70.4931L19.2824 70.4898Z" fill="white" fill-opacity="0.2"/>
<path d="M98.2983 43.6016C107.806 62.1373 117.311 80.6631 126.812 99.1855C126.654 99.2856 126.516 99.2522 126.385 99.2522C123.571 99.2522 120.761 99.2489 117.947 99.2622C117.624 99.2622 117.479 99.1488 117.341 98.8752C115.544 95.2715 113.733 91.6711 111.929 88.0707C110.068 84.3636 108.207 80.6564 106.346 76.9459C104.562 73.3923 102.781 69.8419 100.998 66.2883C99.032 62.3642 97.0664 58.4402 95.0975 54.5195C95.0268 54.3793 94.9797 54.2225 94.8148 54.0657C90.2375 62.9915 85.6905 71.9074 81.2242 80.8599C81.3319 80.9534 81.4161 80.8833 81.4968 80.8533C83.4186 80.1525 85.3876 79.6187 87.4171 79.3317C91.2909 78.7811 95.0605 79.0781 98.655 80.7265C100.193 81.4305 101.6 82.3281 102.791 83.5327C102.997 83.7396 103.178 83.9665 103.431 84.2501C103.007 84.2501 102.664 84.2501 102.32 84.2501C102.213 84.2501 102.152 84.18 102.085 84.1166C99.9071 82.1579 97.329 80.9901 94.4715 80.4095C90.8601 79.6754 87.3329 80.1025 83.8629 81.237C82.7657 81.5974 81.6988 82.0378 80.6487 82.515C80.4131 82.6218 80.2684 82.7719 80.1539 82.9988C77.6297 88.0307 75.0987 93.0592 72.5677 98.0877C72.4903 98.2412 72.4095 98.3947 72.3287 98.5582H71.0801C73.5909 93.4696 76.0882 88.4144 78.6125 83.3058C77.9932 83.4493 77.4378 83.5994 76.8758 83.7095C75.1054 84.0466 73.325 84.1066 71.5344 83.9531C67.9298 83.6395 64.5776 82.5283 61.424 80.7999C61.2826 80.7231 61.1446 80.6364 61.0066 80.553C60.9629 80.5263 60.9191 80.4929 60.8552 80.4429C60.8484 80.0491 60.8316 79.642 60.8653 79.2383C61.0134 79.2183 61.084 79.315 61.1715 79.3684C64.1603 81.2003 67.3812 82.4082 70.868 82.8687C73.6447 83.2357 76.3676 82.9988 78.9894 81.9377C79.2553 81.8309 79.4269 81.6808 79.5548 81.4205C81.0829 78.3073 82.621 75.2008 84.1557 72.0909C86.6059 67.1291 89.0561 62.164 91.5063 57.2022C93.1555 53.8655 94.8047 50.532 96.4539 47.1953C97.0025 46.0841 97.5477 44.9696 98.0997 43.8585C98.1401 43.7784 98.1569 43.6783 98.3016 43.6049L98.2983 43.6016Z" fill="white"/>
<path d="M98.2983 43.6016C107.806 62.1373 117.311 80.6631 126.812 99.1855C126.654 99.2856 126.516 99.2522 126.385 99.2522C123.571 99.2522 120.761 99.2489 117.947 99.2622C117.624 99.2622 117.479 99.1488 117.341 98.8752C115.544 95.2715 113.733 91.6711 111.929 88.0707C110.068 84.3636 108.207 80.6564 106.346 76.9459C104.562 73.3923 102.781 69.8419 100.998 66.2883C99.032 62.3642 97.0664 58.4402 95.0975 54.5195C95.0268 54.3793 94.9797 54.2225 94.8148 54.0657C90.2375 62.9915 85.6905 71.9074 81.2242 80.8599C81.3319 80.9534 81.4161 80.8833 81.4968 80.8533C83.4186 80.1525 85.3876 79.6187 87.4171 79.3317C91.2909 78.7811 95.0605 79.0781 98.655 80.7265C100.193 81.4305 101.6 82.3281 102.791 83.5327C102.997 83.7396 103.178 83.9665 103.431 84.2501C103.007 84.2501 102.664 84.2501 102.32 84.2501C102.213 84.2501 102.152 84.18 102.085 84.1166C99.9071 82.1579 97.329 80.9901 94.4715 80.4095C90.8601 79.6754 87.3329 80.1025 83.8629 81.237C82.7657 81.5974 81.6988 82.0378 80.6487 82.515C80.4131 82.6218 80.2684 82.7719 80.1539 82.9988C77.6297 88.0307 75.0987 93.0592 72.5677 98.0877C72.4903 98.2412 72.4095 98.3947 72.3287 98.5582H71.0801C73.5909 93.4696 76.0882 88.4144 78.6125 83.3058C77.9932 83.4493 77.4378 83.5994 76.8758 83.7095C75.1054 84.0466 73.325 84.1066 71.5344 83.9531C67.9298 83.6395 64.5776 82.5283 61.424 80.7999C61.2826 80.7231 61.1446 80.6364 61.0066 80.553C60.9629 80.5263 60.9191 80.4929 60.8552 80.4429C60.8484 80.0491 60.8316 79.642 60.8653 79.2383C61.0134 79.2183 61.084 79.315 61.1715 79.3684C64.1603 81.2003 67.3812 82.4082 70.868 82.8687C73.6447 83.2357 76.3676 82.9988 78.9894 81.9377C79.2553 81.8309 79.4269 81.6808 79.5548 81.4205C81.0829 78.3073 82.621 75.2008 84.1557 72.0909C86.6059 67.1291 89.0561 62.164 91.5063 57.2022C93.1555 53.8655 94.8047 50.532 96.4539 47.1953C97.0025 46.0841 97.5477 44.9696 98.0997 43.8585C98.1401 43.7784 98.1569 43.6783 98.3016 43.6049L98.2983 43.6016Z" fill="white" fill-opacity="0.2"/>
<path d="M136.469 44.4909C136.617 44.4242 136.739 44.4475 136.86 44.4475C139.62 44.4475 142.376 44.4508 145.136 44.4375C145.442 44.4375 145.621 44.5376 145.796 44.7812C151.527 52.7627 157.266 60.7376 163.001 68.7125C164.812 71.2318 166.622 73.7477 168.433 76.267C168.511 76.3737 168.568 76.4972 168.696 76.5739C168.867 76.4171 168.968 76.2136 169.093 76.0267C173.492 69.4833 177.884 62.9399 182.279 56.3932C184.841 52.5759 187.402 48.7586 189.97 44.9447C190.374 44.3441 190.162 44.4542 190.933 44.4475C191.061 44.4475 191.199 44.4075 191.347 44.5209C191.077 44.9313 190.811 45.3418 190.539 45.7522C186.682 51.5782 182.825 57.4042 178.964 63.2302C175.659 68.222 172.361 73.2138 169.049 78.199C168.904 78.4192 168.877 78.6327 168.877 78.8763C168.877 85.4231 168.877 91.9731 168.877 98.5199C168.877 98.6901 168.908 98.8636 168.834 99.0638H161.045C160.958 98.8836 160.995 98.7067 160.995 98.5366C160.995 92.0032 160.992 85.4664 160.995 78.933C160.995 78.6261 160.921 78.3758 160.736 78.1255C153.52 68.1519 146.307 58.1716 139.095 48.1914C138.287 47.0769 137.479 45.9591 136.675 44.8446C136.597 44.7378 136.5 44.641 136.459 44.4909H136.469Z" fill="white"/>
<path d="M136.469 44.4909C136.617 44.4242 136.739 44.4475 136.86 44.4475C139.62 44.4475 142.376 44.4508 145.136 44.4375C145.442 44.4375 145.621 44.5376 145.796 44.7812C151.527 52.7627 157.266 60.7376 163.001 68.7125C164.812 71.2318 166.622 73.7477 168.433 76.267C168.511 76.3737 168.568 76.4972 168.696 76.5739C168.867 76.4171 168.968 76.2136 169.093 76.0267C173.492 69.4833 177.884 62.9399 182.279 56.3932C184.841 52.5759 187.402 48.7586 189.97 44.9447C190.374 44.3441 190.162 44.4542 190.933 44.4475C191.061 44.4475 191.199 44.4075 191.347 44.5209C191.077 44.9313 190.811 45.3418 190.539 45.7522C186.682 51.5782 182.825 57.4042 178.964 63.2302C175.659 68.222 172.361 73.2138 169.049 78.199C168.904 78.4192 168.877 78.6327 168.877 78.8763C168.877 85.4231 168.877 91.9731 168.877 98.5199C168.877 98.6901 168.908 98.8636 168.834 99.0638H161.045C160.958 98.8836 160.995 98.7067 160.995 98.5366C160.995 92.0032 160.992 85.4664 160.995 78.933C160.995 78.6261 160.921 78.3758 160.736 78.1255C153.52 68.1519 146.307 58.1716 139.095 48.1914C138.287 47.0769 137.479 45.9591 136.675 44.8446C136.597 44.7378 136.5 44.641 136.459 44.4909H136.469Z" fill="white" fill-opacity="0.2"/>
<path d="M203.096 92.1755H233.498C232.838 93.6703 232.212 95.0951 231.583 96.5166C231.229 97.3174 230.859 98.1116 230.523 98.9191C230.412 99.1827 230.253 99.2828 229.984 99.2594C229.89 99.2528 229.796 99.2594 229.701 99.2594C218.241 99.2594 206.781 99.2594 195.321 99.2594H194.742C194.877 99.0826 194.944 98.9725 195.032 98.8824C196.677 97.2173 198.327 95.5556 199.972 93.8939C202.328 91.5181 204.691 89.149 207.044 86.7699C208.801 84.9947 210.571 83.2329 212.291 81.4211C214.418 79.1854 216.235 76.7029 217.952 74.1502C219.429 71.948 220.766 69.6656 221.819 67.2264C222.802 64.9541 223.364 62.595 223.253 60.1158C223.105 56.8558 222.166 53.866 219.934 51.3868C218.238 49.5015 216.097 48.407 213.57 48.1134C209.817 47.6796 206.3 48.4971 202.958 50.1722C200.945 51.1799 199.131 52.4746 197.478 53.9895C196.846 54.5701 196.233 55.1707 195.536 55.8347C195.58 55.6712 195.584 55.5444 195.644 55.461C196.893 53.7025 198.205 51.9941 199.676 50.4091C201.016 48.9676 202.466 47.6463 204.095 46.5284C206.687 44.7566 209.528 43.7155 212.698 43.6188C214.997 43.5487 217.272 43.6755 219.49 44.3162C223.101 45.3606 226.167 47.2525 228.486 50.2223C230.068 52.2477 230.99 54.5334 231.179 57.1127C231.371 59.712 230.762 62.1412 229.691 64.4803C228.389 67.3299 226.588 69.8558 224.407 72.0981C222.896 73.6497 221.291 75.1079 219.709 76.5928C217.841 78.3446 215.959 80.0797 214.081 81.8215C212.17 83.5966 210.261 85.3718 208.35 87.147C206.589 88.782 204.829 90.4137 203.069 92.0487C203.076 92.0921 203.086 92.1321 203.092 92.1755H203.096Z" fill="white"/>
<path d="M203.096 92.1755H233.498C232.838 93.6703 232.212 95.0951 231.583 96.5166C231.229 97.3174 230.859 98.1116 230.523 98.9191C230.412 99.1827 230.253 99.2828 229.984 99.2594C229.89 99.2528 229.796 99.2594 229.701 99.2594C218.241 99.2594 206.781 99.2594 195.321 99.2594H194.742C194.877 99.0826 194.944 98.9725 195.032 98.8824C196.677 97.2173 198.327 95.5556 199.972 93.8939C202.328 91.5181 204.691 89.149 207.044 86.7699C208.801 84.9947 210.571 83.2329 212.291 81.4211C214.418 79.1854 216.235 76.7029 217.952 74.1502C219.429 71.948 220.766 69.6656 221.819 67.2264C222.802 64.9541 223.364 62.595 223.253 60.1158C223.105 56.8558 222.166 53.866 219.934 51.3868C218.238 49.5015 216.097 48.407 213.57 48.1134C209.817 47.6796 206.3 48.4971 202.958 50.1722C200.945 51.1799 199.131 52.4746 197.478 53.9895C196.846 54.5701 196.233 55.1707 195.536 55.8347C195.58 55.6712 195.584 55.5444 195.644 55.461C196.893 53.7025 198.205 51.9941 199.676 50.4091C201.016 48.9676 202.466 47.6463 204.095 46.5284C206.687 44.7566 209.528 43.7155 212.698 43.6188C214.997 43.5487 217.272 43.6755 219.49 44.3162C223.101 45.3606 226.167 47.2525 228.486 50.2223C230.068 52.2477 230.99 54.5334 231.179 57.1127C231.371 59.712 230.762 62.1412 229.691 64.4803C228.389 67.3299 226.588 69.8558 224.407 72.0981C222.896 73.6497 221.291 75.1079 219.709 76.5928C217.841 78.3446 215.959 80.0797 214.081 81.8215C212.17 83.5966 210.261 85.3718 208.35 87.147C206.589 88.782 204.829 90.4137 203.069 92.0487C203.076 92.0921 203.086 92.1321 203.092 92.1755H203.096Z" fill="white" fill-opacity="0.2"/>
</g>
<rect x="283.658" width="2.31873" height="139.124" rx="1.15937" fill="url(#paint0_linear_1490_2381)"/>
<defs>
<linearGradient id="paint0_linear_1490_2381" x1="284.817" y1="0" x2="284.817" y2="139.124" gradientUnits="userSpaceOnUse">
<stop stop-color="#5E5E5E" stop-opacity="0"/>
<stop offset="0.505" stop-color="#606060"/>
<stop offset="1" stop-color="#595959" stop-opacity="0"/>
</linearGradient>
<clipPath id="clip0_1490_2381">
<rect width="192.211" height="102.512" fill="white" transform="translate(338.859 18.3047)"/>
</clipPath>
<clipPath id="clip1_1490_2381">
<rect width="233.5" height="102.512" fill="white" transform="translate(0 18.3047)"/>
</clipPath>
</defs>
</svg>
