<svg width="119" height="39" viewBox="0 0 119 39" fill="none" xmlns="http://www.w3.org/2000/svg">
<mask id="path-1-outside-1_2931_2116" maskUnits="userSpaceOnUse" x="0" y="0" width="119" height="39" fill="black">
<rect fill="white" width="119" height="39"/>
<path fill-rule="evenodd" clip-rule="evenodd" d="M118 6C118 3.23858 115.761 1 113 1L6 1C3.23858 1 1 3.23858 1 6V24C1 26.7614 3.23858 29 6 29L71.7946 29H75.9998L113 29C115.761 29 118 26.7614 118 24V6ZM55.8148 35.9128C55.4637 35.5521 55.1493 35.2215 54.8486 34.9053C53.7084 33.7066 52.7651 32.7148 50.7686 31.0738C48.2454 29 44.8813 29 44.8813 29L71.7873 29C67.5884 29.0008 66.7474 29.6921 65.0663 31.0738C63.3842 32.4564 61.7021 34.1846 60.02 35.9128C58.3379 37.641 57.4969 37.641 55.8148 35.9128Z"/>
</mask>
<path fill-rule="evenodd" clip-rule="evenodd" d="M118 6C118 3.23858 115.761 1 113 1L6 1C3.23858 1 1 3.23858 1 6V24C1 26.7614 3.23858 29 6 29L71.7946 29H75.9998L113 29C115.761 29 118 26.7614 118 24V6ZM55.8148 35.9128C55.4637 35.5521 55.1493 35.2215 54.8486 34.9053C53.7084 33.7066 52.7651 32.7148 50.7686 31.0738C48.2454 29 44.8813 29 44.8813 29L71.7873 29C67.5884 29.0008 66.7474 29.6921 65.0663 31.0738C63.3842 32.4564 61.7021 34.1846 60.02 35.9128C58.3379 37.641 57.4969 37.641 55.8148 35.9128Z" fill="black" fill-opacity="0.6"/>
<path d="M54.8486 34.9053L55.5732 34.2162L55.5732 34.2162L54.8486 34.9053ZM55.8148 35.9128L56.5314 35.2153L56.5314 35.2153L55.8148 35.9128ZM50.7686 31.0738L50.1336 31.8464L50.1336 31.8464L50.7686 31.0738ZM71.7873 29L71.7875 30L71.7873 28L71.7873 29ZM65.0663 31.0738L65.7013 31.8464L65.7013 31.8464L65.0663 31.0738ZM60.02 35.9128L60.7366 36.6103L60.7366 36.6103L60.02 35.9128ZM113 2C115.209 2 117 3.79086 117 6H119C119 2.68629 116.314 0 113 0V2ZM6 2L113 2V0L6 0V2ZM2 6C2 3.79086 3.79086 2 6 2V0C2.68629 0 0 2.68629 0 6H2ZM2 24V6H0V24H2ZM6 28C3.79086 28 2 26.2091 2 24H0C0 27.3137 2.68629 30 6 30V28ZM71.7946 28L6 28V30L71.7946 30V28ZM75.9998 28H71.7946V30H75.9998V28ZM113 28L75.9998 28V30L113 30V28ZM117 24C117 26.2091 115.209 28 113 28V30C116.314 30 119 27.3137 119 24H117ZM117 6V24H119V6H117ZM54.124 35.5945C54.4244 35.9104 54.7426 36.2449 55.0982 36.6103L56.5314 35.2153C56.1849 34.8593 55.8742 34.5327 55.5732 34.2162L54.124 35.5945ZM50.1336 31.8464C52.0843 33.4497 52.9954 34.408 54.124 35.5945L55.5732 34.2162C54.4213 33.0052 53.4459 31.98 51.4035 30.3013L50.1336 31.8464ZM44.8813 29C44.8813 30 44.881 30 44.8807 30C44.8806 30 44.8804 30 44.8802 30C44.8799 30 44.8797 30 44.8795 30C44.8791 30 44.8789 30 44.8788 30C44.8788 30 44.8796 30 44.8812 30C44.8843 30.0001 44.8905 30.0001 44.8996 30.0003C44.9179 30.0007 44.9481 30.0015 44.989 30.0032C45.0709 30.0066 45.1957 30.0137 45.3554 30.0283C45.6755 30.0575 46.1313 30.1165 46.66 30.235C47.7277 30.4744 49.0351 30.9435 50.1336 31.8464L51.4035 30.3013C49.9789 29.1304 48.3427 28.5626 47.0975 28.2835C46.4697 28.1427 45.9268 28.0721 45.5373 28.0366C45.3421 28.0187 45.1844 28.0096 45.0725 28.0049C45.0165 28.0026 44.9719 28.0014 44.9397 28.0007C44.9236 28.0004 44.9106 28.0002 44.9008 28.0001C44.8959 28.0001 44.8918 28 44.8886 28C44.8869 28 44.8855 28 44.8843 28C44.8837 28 44.8831 28 44.8826 28C44.8824 28 44.882 28 44.8819 28C44.8816 28 44.8813 28 44.8813 29ZM71.7873 28L44.8813 28L44.8813 30L71.7873 30L71.7873 28ZM65.7013 31.8464C66.5551 31.1446 67.0631 30.7372 67.8261 30.4582C68.6053 30.1733 69.7251 30.0004 71.7875 30L71.7871 28C69.6507 28.0004 68.2505 28.1735 67.1392 28.5799C66.0117 28.9922 65.2586 29.6213 64.4313 30.3013L65.7013 31.8464ZM60.7366 36.6103C62.4282 34.8724 64.0703 33.187 65.7013 31.8464L64.4313 30.3013C62.6982 31.7259 60.9761 33.4968 59.3034 35.2153L60.7366 36.6103ZM55.0982 36.6103C55.9301 37.465 56.8262 38.209 57.9174 38.209C59.0087 38.209 59.9047 37.465 60.7366 36.6103L59.3034 35.2153C58.4533 36.0888 58.0877 36.209 57.9174 36.209C57.7471 36.209 57.3816 36.0888 56.5314 35.2153L55.0982 36.6103Z" fill="white" fill-opacity="0.6" mask="url(#path-1-outside-1_2931_2116)"/>
</svg>
