<svg xmlns="http://www.w3.org/2000/svg" width="25" height="25" viewBox="0 0 25 25" fill="none">
<path fill-rule="evenodd" clip-rule="evenodd" d="M19.7946 7.51698C19.9434 7.67037 19.9898 7.89601 19.9138 8.09567L15.3138 20.1706C15.2474 20.3449 15.0972 20.4736 14.9149 20.5126C14.7325 20.5516 14.5428 20.4956 14.4109 20.3637L9.32777 15.2805L4.27598 13.5966C4.05249 13.5221 3.90127 13.3136 3.89991 13.078C3.89856 12.8424 4.04738 12.6322 4.26999 12.5551L19.2199 7.38013C19.4218 7.31024 19.6459 7.3636 19.7946 7.51698ZM10.4755 14.8726L14.5882 18.9853L18.244 9.38898L10.4755 14.8726ZM15.9104 9.68976L6.15968 13.065L9.53492 14.1901L15.9104 9.68976Z" fill="#ADA08C"/>
<path fill-rule="evenodd" clip-rule="evenodd" d="M0.449951 12.4999C0.449951 5.84471 5.84471 0.449951 12.4999 0.449951C19.155 0.449951 24.5498 5.84471 24.5498 12.4999C24.5498 19.155 19.155 24.5498 12.4999 24.5498C5.84471 24.5498 0.449951 19.155 0.449951 12.4999ZM12.4999 1.54995C6.45222 1.54995 1.54995 6.45222 1.54995 12.4999C1.54995 18.5475 6.45222 23.4498 12.4999 23.4498C18.5475 23.4498 23.4498 18.5475 23.4498 12.4999C23.4498 6.45222 18.5475 1.54995 12.4999 1.54995Z" fill="#ADA08C"/>
</svg>