<svg width="26" height="30" viewBox="0 0 26 30" fill="none" xmlns="http://www.w3.org/2000/svg">
<path fill-rule="evenodd" clip-rule="evenodd" d="M25.4014 2.353C25.4014 1.05348 24.3479 0 23.0484 0L2.35341 0C1.0539 0 0.000440597 1.05345 0.000431061 2.35296L0.000278473 23.0592C0.000268936 24.3587 1.05374 25.4122 2.35326 25.4122H7.30939C7.82544 25.539 8.45225 25.7755 8.99511 26.2167C9.92111 26.9693 10.3586 27.4242 10.8874 27.9739C11.0269 28.1189 11.1728 28.2705 11.3356 28.436C12.1158 29.2285 12.5058 29.2285 13.286 28.436L13.286 28.4359C14.0662 27.6434 14.8463 26.8508 15.6265 26.2167C16.1004 25.8316 16.4304 25.5634 17.0536 25.4122H23.0482C24.3477 25.4122 25.4012 24.3587 25.4012 23.0592L25.4014 2.353Z" fill="black"/>
<mask id="mask0_2952_2177" style="mask-type:alpha" maskUnits="userSpaceOnUse" x="0" y="0" width="26" height="30">
<path fill-rule="evenodd" clip-rule="evenodd" d="M25.4014 2.353C25.4014 1.05348 24.3479 0 23.0484 0L2.35341 0C1.0539 0 0.000440597 1.05345 0.000431061 2.35296L0.000278473 23.0592C0.000268936 24.3587 1.05374 25.4122 2.35326 25.4122H7.30939C7.82544 25.539 8.45225 25.7755 8.99511 26.2167C9.92111 26.9693 10.3586 27.4242 10.8874 27.9739C11.0269 28.1189 11.1728 28.2705 11.3356 28.436C12.1158 29.2285 12.5058 29.2285 13.286 28.436L13.286 28.4359C14.0662 27.6434 14.8463 26.8508 15.6265 26.2167C16.1004 25.8316 16.4304 25.5634 17.0536 25.4122H23.0482C24.3477 25.4122 25.4012 24.3587 25.4012 23.0592L25.4014 2.353Z" fill="black"/>
</mask>
<g mask="url(#mask0_2952_2177)">
<path d="M18.1423 0L25.4011 0V29.1769H11.7598L18.1423 0Z" fill="url(#paint0_linear_2952_2177)" fill-opacity="0.15"/>
</g>
<rect x="20.2266" y="20.2383" width="15.0525" height="15.0591" rx="2.73801" transform="rotate(-180 20.2266 20.2383)" fill="white"/>
<rect x="20.2266" y="20.2383" width="15.0525" height="15.0591" rx="2.73801" transform="rotate(-180 20.2266 20.2383)" fill="url(#paint1_linear_2952_2177)" fill-opacity="0.17"/>
<path d="M17.4922 8.43049V16.6445H12.8205V14.7621L7.90914 14.7621L7.90914 8.43049L17.4922 8.43049ZM16.7735 9.115H15.5157V10.3129H16.7735V9.115ZM16.7735 10.9974H15.5157V12.1953H16.7735V10.9974ZM16.7735 12.8798H15.5157V14.0776H16.7735V12.8798ZM16.7735 14.7621H15.5157V15.96H16.7735V14.7621ZM14.797 9.115H13.5392V10.3129H14.797V9.115ZM14.797 10.9974H13.5392V12.1953H14.797V10.9974ZM14.797 12.8798H13.5392V14.0776H14.797V12.8798ZM14.797 14.7621H13.5392V15.96H14.797V14.7621ZM12.8205 9.115H8.62787L8.62787 14.0776H12.8205V12.8798H11.8621V12.1953H12.8205V10.9974H11.8621V10.3129H12.8205V9.115ZM10.6044 12.1953V12.8798H9.88565V12.1953H10.6044ZM10.6044 10.3129V10.9974H9.88565V10.3129H10.6044Z" fill="black"/>
<defs>
<linearGradient id="paint0_linear_2952_2177" x1="4.45191" y1="25.4122" x2="29.0246" y2="25.4122" gradientUnits="userSpaceOnUse">
<stop stop-color="white"/>
<stop offset="1" stop-color="white" stop-opacity="0"/>
</linearGradient>
<linearGradient id="paint1_linear_2952_2177" x1="27.7528" y1="20.2383" x2="27.7528" y2="35.2973" gradientUnits="userSpaceOnUse">
<stop offset="0.43" stop-opacity="0"/>
<stop offset="1"/>
</linearGradient>
</defs>
</svg>
