<svg width="18" height="18" viewBox="0 0 18 18" fill="none" xmlns="http://www.w3.org/2000/svg">
										<g clip-path="url(#clip0_3197_1685)">
											<path fill-rule="evenodd" clip-rule="evenodd" d="M14.2528 5.41208C14.3599 5.52252 14.3933 5.68498 14.3386 5.82873L11.0266 14.5227C10.9788 14.6481 10.8707 14.7409 10.7394 14.7689C10.6081 14.797 10.4715 14.7567 10.3765 14.6617L6.71666 11.0018L3.07937 9.78941C2.91846 9.73578 2.80958 9.58562 2.8086 9.41601C2.80763 9.2464 2.91478 9.095 3.07506 9.03952L13.839 5.31355C13.9844 5.26323 14.1457 5.30165 14.2528 5.41208ZM7.54301 10.7081L10.5042 13.6693L13.1363 6.75992L7.54301 10.7081ZM11.4561 6.97648L4.43563 9.40666L6.86581 10.2167L11.4561 6.97648Z" fill="#919191"></path>
											<path fill-rule="evenodd" clip-rule="evenodd" d="M0.324219 8.99967C0.324219 4.20796 4.20844 0.32373 9.00016 0.32373C13.7919 0.32373 17.6761 4.20796 17.6761 8.99967C17.6761 13.7914 13.7919 17.6756 9.00016 17.6756C4.20844 17.6756 0.324219 13.7914 0.324219 8.99967ZM9.00016 1.11573C4.64585 1.11573 1.11622 4.64537 1.11622 8.99967C1.11622 13.354 4.64585 16.8836 9.00016 16.8836C13.3545 16.8836 16.8841 13.354 16.8841 8.99967C16.8841 4.64537 13.3545 1.11573 9.00016 1.11573Z" fill="#919191"></path>
										</g>
										<defs>
											<clipPath id="clip0_3197_1685">
												<rect width="18" height="18" fill="white"></rect>
											</clipPath>
										</defs>
									</svg>